<?xml version="1.0" encoding="UTF-8" standalone="no"?>
<svg
   xmlns:dc="http://purl.org/dc/elements/1.1/"
   xmlns:cc="http://creativecommons.org/ns#"
   xmlns:rdf="http://www.w3.org/1999/02/22-rdf-syntax-ns#"
   xmlns:svg="http://www.w3.org/2000/svg"
   xmlns="http://www.w3.org/2000/svg"
   xmlns:sodipodi="http://sodipodi.sourceforge.net/DTD/sodipodi-0.dtd"
   xmlns:inkscape="http://www.inkscape.org/namespaces/inkscape"
   version="1.1"
   id="svg2"
   xml:space="preserve"
   width="4946.6665"
   height="4946.6665"
   viewBox="0 0 4946.6665 4946.6665"
   sodipodi:docname="20944362.eps"><metadata
     id="metadata8"><rdf:RDF><cc:Work
         rdf:about=""><dc:format>image/svg+xml</dc:format><dc:type
           rdf:resource="http://purl.org/dc/dcmitype/StillImage" /></cc:Work></rdf:RDF></metadata><defs
     id="defs6"><clipPath
       clipPathUnits="userSpaceOnUse"
       id="clipPath22"><path
         d="m 18830.8,4550 c -1669.6,0 -2944.9,233.4 -3453.6,336.8 C 13532.4,5261.4 9966.55,5985.7 7388.48,9017.4 4877.88,11969.9 4234.99,16016.3 4902.4,19797 5926.64,15059.1 9004.16,7956.3 18244.3,7955.8 c 949,-0.1 1961.9,74.7 3045.3,234.8 0,0 -1932.5,2862.4 -4938.3,6230.3 643.1,-192.7 1337.3,-355 2084.8,-482.4 0,0 -2833.9,9916.9 -8015.9,15473.7 1498.2,1223.2 3519.6,2341 6118.6,2680.8 589.7,77.1 1196,116 1810.1,116 3129.9,0 6474.8,-1011 9012.3,-3137 C 33732.6,23734.1 33279,12950.5 28995.1,8440.5 28429.7,7845.4 27894.9,7461.6 27472.2,7158.4 24527.2,5045.3 21261.6,4550 18830.8,4550 M 9101.32,21178 c -1041.35,765.3 -2114.49,1459.2 -3206.69,2043.1 345.26,839.7 756.62,1639.4 1226.21,2379.8 198.67,313.2 702.99,1138.4 1542.55,2103.3 C 8428.63,25909.6 8365.68,23498 9101.32,21178"
         id="path20" /></clipPath><linearGradient
       x1="0"
       y1="0"
       x2="1"
       y2="0"
       gradientUnits="userSpaceOnUse"
       gradientTransform="matrix(-24611.3,30565.7,30565.7,24611.3,35765.8,-3613.5)"
       spreadMethod="pad"
       id="linearGradient28"><stop
         style="stop-opacity:1;stop-color:#dae3fe"
         offset="0"
         id="stop24" /><stop
         style="stop-opacity:1;stop-color:#e9effd"
         offset="1"
         id="stop26" /></linearGradient><clipPath
       clipPathUnits="userSpaceOnUse"
       id="clipPath40"><path
         d="m 18436.1,13938.5 c -747.5,127.4 -1441.7,289.7 -2084.8,482.4 -2019.1,2262.3 -4522.5,4752.6 -7249.98,6757.1 -735.64,2320 -672.69,4731.6 -437.93,6526.2 476.01,547 1059.63,1138.8 1756.81,1708 5182,-5556.8 8015.9,-15473.7 8015.9,-15473.7 m -8308.2,12652.8 c -11.7,0 -23.8,-10 -20.1,-25 1861.5,-7630.7 6126.1,-11307.4 7219.4,-12045.4 5.6,-3.7 11.2,-5.3 16.5,-5.3 23.1,0 40.3,30.8 18.5,50.2 -4222.1,3765.6 -6621.5,10250.9 -7216.4,12012.2 -3.1,9.3 -10.4,13.3 -17.9,13.3"
         id="path38" /></clipPath><linearGradient
       x1="0"
       y1="0"
       x2="1"
       y2="0"
       gradientUnits="userSpaceOnUse"
       gradientTransform="matrix(-24611.3,30565.7,30565.7,24611.3,35765.8,-3613.5)"
       spreadMethod="pad"
       id="linearGradient46"><stop
         style="stop-opacity:1;stop-color:#c3d4fc"
         offset="0"
         id="stop42" /><stop
         style="stop-opacity:1;stop-color:#c6d6fb"
         offset="1"
         id="stop44" /></linearGradient><clipPath
       clipPathUnits="userSpaceOnUse"
       id="clipPath56"><path
         d="m 17343.7,14515.6 c -5.3,0 -10.9,1.6 -16.5,5.3 -1093.3,738 -5357.9,4414.7 -7219.4,12045.4 -3.7,15 8.4,25 20.1,25 7.5,0 14.8,-4 17.9,-13.3 594.9,-1761.3 2994.3,-8246.6 7216.4,-12012.2 21.8,-19.4 4.6,-50.2 -18.5,-50.2"
         id="path54" /></clipPath><linearGradient
       x1="0"
       y1="0"
       x2="1"
       y2="0"
       gradientUnits="userSpaceOnUse"
       gradientTransform="matrix(-24611.3,30565.7,30565.7,24611.3,35765.8,-3613.5)"
       spreadMethod="pad"
       id="linearGradient62"><stop
         style="stop-opacity:1;stop-color:#dde7fd"
         offset="0"
         id="stop58" /><stop
         style="stop-opacity:1;stop-color:#e0e9fd"
         offset="1"
         id="stop60" /></linearGradient><clipPath
       clipPathUnits="userSpaceOnUse"
       id="clipPath76"><path
         d="m 30315.7,12667.4 h -283.8 v 2631.1 l 536.4,182.2 z"
         id="path74" /></clipPath><linearGradient
       x1="0"
       y1="0"
       x2="1"
       y2="0"
       gradientUnits="userSpaceOnUse"
       gradientTransform="matrix(-4492.79,-6058.46,-6058.46,4492.79,39194,26146.5)"
       spreadMethod="pad"
       id="linearGradient82"><stop
         style="stop-opacity:1;stop-color:#09005d"
         offset="0"
         id="stop78" /><stop
         style="stop-opacity:1;stop-color:#1a0f91"
         offset="1"
         id="stop80" /></linearGradient><clipPath
       clipPathUnits="userSpaceOnUse"
       id="clipPath92"><path
         d="m 17477.1,10518.3 -8471.55,4240.2 741.36,-6495.3 c 197.87,-219.6 484.59,-517.5 856.99,-838.9 2790.9,-2408.2 6218.4,-2528.9 7139.2,-2548.4 862.8,-18.4 4521.5,-96 7366,2356.4 290.6,250.6 514.4,477.3 662.5,635 l 1891.6,6431.3 c 0,0 -10071.9,-3832.6 -10186.1,-3780.3 z"
         id="path90" /></clipPath><linearGradient
       x1="0"
       y1="0"
       x2="1"
       y2="0"
       gradientUnits="userSpaceOnUse"
       gradientTransform="matrix(68.079,8509.07,8509.07,-68.079,18215.6,-318.701)"
       spreadMethod="pad"
       id="linearGradient98"><stop
         style="stop-opacity:1;stop-color:#4f52ff"
         offset="0"
         id="stop94" /><stop
         style="stop-opacity:1;stop-color:#4042e2"
         offset="1"
         id="stop96" /></linearGradient><clipPath
       clipPathUnits="userSpaceOnUse"
       id="clipPath108"><path
         d="m 6101.23,16964.1 13089.67,3522 c 113.6,46.8 13088,-3403.9 13088,-3403.9 477.7,-194.8 470.1,-984.7 -11,-1167.1 L 18973.4,10690.5 c -830.6,-326.5 -1759.9,-290.2 -2562.6,100 L 6084.17,15810.2 c -455.32,208.6 -444.17,963.7 17.06,1153.9 z"
         id="path106" /></clipPath><linearGradient
       x1="0"
       y1="0"
       x2="1"
       y2="0"
       gradientUnits="userSpaceOnUse"
       gradientTransform="matrix(-26279.8,-13408.1,-13408.1,26279.8,24676.3,19240.7)"
       spreadMethod="pad"
       id="linearGradient114"><stop
         style="stop-opacity:1;stop-color:#4f52ff"
         offset="0"
         id="stop110" /><stop
         style="stop-opacity:1;stop-color:#4042e2"
         offset="1"
         id="stop112" /></linearGradient><clipPath
       clipPathUnits="userSpaceOnUse"
       id="clipPath124"><path
         d="m 30326.5,13296.6 c 0,0 -2818.8,-3913 -184.7,-6412.5 94.8,-89.9 235.8,-61.4 296.6,62.1 l 1000.3,2032 c 742.7,1508.6 -1112.2,4318.4 -1112.2,4318.4 z"
         id="path122" /></clipPath><linearGradient
       x1="0"
       y1="0"
       x2="1"
       y2="0"
       gradientUnits="userSpaceOnUse"
       gradientTransform="matrix(-4492.77,-6058.44,-6058.44,4492.77,41177.7,24675.5)"
       spreadMethod="pad"
       id="linearGradient130"><stop
         style="stop-opacity:1;stop-color:#09005d"
         offset="0"
         id="stop126" /><stop
         style="stop-opacity:1;stop-color:#1a0f91"
         offset="1"
         id="stop128" /></linearGradient><clipPath
       clipPathUnits="userSpaceOnUse"
       id="clipPath142"><path
         d="m 24845.3,30920.8 287.5,-485.7 c 39,-66 104.7,-111.8 180.1,-125.5 189.3,-34.3 578.3,-47.4 1067.1,248 496.4,300.1 605,635.7 626.3,804.5 7.8,61.2 -4.8,123.1 -35.8,176.4 l -300.7,518.2 z"
         id="path140" /></clipPath><linearGradient
       x1="0"
       y1="0"
       x2="1"
       y2="0"
       gradientUnits="userSpaceOnUse"
       gradientTransform="matrix(-3182.39,2807.99,2807.99,3182.39,26842.9,30406.5)"
       spreadMethod="pad"
       id="linearGradient148"><stop
         style="stop-opacity:1;stop-color:#09005d"
         offset="0"
         id="stop144" /><stop
         style="stop-opacity:1;stop-color:#1a0f91"
         offset="1"
         id="stop146" /></linearGradient><clipPath
       clipPathUnits="userSpaceOnUse"
       id="clipPath158"><path
         d="M 25168.5,32267.1 24397.8,30831 c -39.7,-73.9 19.1,-162.2 102.6,-154 407.4,39.9 1344.1,120.1 1789.2,63.7 47.6,-6.1 93.1,21.1 110.6,65.8 l 626.7,1600.3 c 28.3,72.4 -29.1,149.4 -106.6,142.8 -408.5,-34.6 -1440,-130.5 -1699,-235 -22.7,-9.1 -41.3,-26 -52.8,-47.5 z"
         id="path156" /></clipPath><linearGradient
       x1="0"
       y1="0"
       x2="1"
       y2="0"
       gradientUnits="userSpaceOnUse"
       gradientTransform="matrix(646.69,-1906.04,-1906.04,-646.69,25325.8,32744.6)"
       spreadMethod="pad"
       id="linearGradient164"><stop
         style="stop-opacity:1;stop-color:#09005d"
         offset="0"
         id="stop160" /><stop
         style="stop-opacity:1;stop-color:#1a0f91"
         offset="1"
         id="stop162" /></linearGradient><clipPath
       clipPathUnits="userSpaceOnUse"
       id="clipPath174"><path
         d="m 25729.4,31680.7 c 0,0 960.3,237.5 1091.4,199.9 131.1,-37.7 437.3,-510 437.3,-510 425.7,-226.6 802.4,-561.6 838.2,-904.6 0,0 -629.9,225 -730.3,491.5 -100.5,266.5 -143.7,373.6 -143.7,373.6 0,0 -347,482.2 -430.7,515.7 0,0 -1087.3,-240.4 -1062.2,-166.1 z"
         id="path172" /></clipPath><linearGradient
       x1="0"
       y1="0"
       x2="1"
       y2="0"
       gradientUnits="userSpaceOnUse"
       gradientTransform="matrix(0,-2127.27,-2127.27,0,26912.6,31467.8)"
       spreadMethod="pad"
       id="linearGradient180"><stop
         style="stop-opacity:1;stop-color:#09005d"
         offset="0"
         id="stop176" /><stop
         style="stop-opacity:1;stop-color:#1a0f91"
         offset="1"
         id="stop178" /></linearGradient><clipPath
       clipPathUnits="userSpaceOnUse"
       id="clipPath198"><path
         d="m 31166.2,18706.4 c -3.8,-1.4 -7.5,-3 -11.6,-3.7 -214.6,-36.4 -691.9,-59.3 -1252,281.3 l -223.8,208.6 c 0,0 70,263.9 377.1,576.9 69.6,-29 187.2,-102.3 377.8,-281.1 294.5,-276.5 610,-638.5 732.5,-782 z"
         id="path196" /></clipPath><linearGradient
       x1="0"
       y1="0"
       x2="1"
       y2="0"
       gradientUnits="userSpaceOnUse"
       gradientTransform="matrix(2792.62,2762.93,-2762.93,2792.62,28318.7,16969.9)"
       spreadMethod="pad"
       id="linearGradient204"><stop
         style="stop-opacity:1;stop-color:#09005d"
         offset="0"
         id="stop200" /><stop
         style="stop-opacity:1;stop-color:#1a0f91"
         offset="1"
         id="stop202" /></linearGradient><clipPath
       clipPathUnits="userSpaceOnUse"
       id="clipPath216"><path
         d="m 24016.4,14583.9 c 1.8,3.6 3.3,7.2 5.8,10.6 128.7,172.8 454.5,515.5 1088.3,654.9 l 302.8,3.8 c 0,0 130.3,-236.8 124.7,-670.7 -69.7,-27 -204,-54.9 -462.6,-57.2 -399.8,-3.7 -873.2,39.7 -1059,58.6 z"
         id="path214" /></clipPath><linearGradient
       x1="0"
       y1="0"
       x2="1"
       y2="0"
       gradientUnits="userSpaceOnUse"
       gradientTransform="matrix(-108.838,-3887.03,3887.03,-108.838,24866.5,17773.9)"
       spreadMethod="pad"
       id="linearGradient222"><stop
         style="stop-opacity:1;stop-color:#09005d"
         offset="0"
         id="stop218" /><stop
         style="stop-opacity:1;stop-color:#1a0f91"
         offset="1"
         id="stop220" /></linearGradient><clipPath
       clipPathUnits="userSpaceOnUse"
       id="clipPath236"><path
         d="m 26447.3,25694 27.5,-920.7 c 1.8,-59 -35.1,-112.2 -91.1,-130.7 -114.6,-38 -322.1,-85 -554.2,-34.9 -69.3,15 -113.5,83.3 -101.3,153.1 l 126.1,725.3 z"
         id="path234" /></clipPath><linearGradient
       x1="0"
       y1="0"
       x2="1"
       y2="0"
       gradientUnits="userSpaceOnUse"
       gradientTransform="matrix(-102.11,-2535.7,-2535.7,102.11,25850.9,18555)"
       spreadMethod="pad"
       id="linearGradient242"><stop
         style="stop-opacity:1;stop-color:#a22b25"
         offset="0"
         id="stop238" /><stop
         style="stop-opacity:1;stop-color:#c0423c"
         offset="1"
         id="stop240" /></linearGradient><clipPath
       clipPathUnits="userSpaceOnUse"
       id="clipPath252"><path
         d="m 25816.3,26537 c -8.4,-10.4 -286.7,-767.8 -409.1,-1101.5 -31,-84.5 15,-177.5 100.9,-204.4 l 269.2,-49.1 c 178.5,-32.6 355.8,62.5 427.3,229.2 l 324.2,377.7 c 176.2,205.3 115.6,522.9 -125.4,645.8 -237.4,121 -497.7,214.5 -587.1,102.3 z"
         id="path250" /></clipPath><linearGradient
       x1="0"
       y1="0"
       x2="1"
       y2="0"
       gradientUnits="userSpaceOnUse"
       gradientTransform="matrix(1327.41,2518.68,2518.68,-1327.41,-17116.1,-55985.9)"
       spreadMethod="pad"
       id="linearGradient258"><stop
         style="stop-opacity:1;stop-color:#a22b25"
         offset="0"
         id="stop254" /><stop
         style="stop-opacity:1;stop-color:#c0423c"
         offset="1"
         id="stop256" /></linearGradient><clipPath
       clipPathUnits="userSpaceOnUse"
       id="clipPath268"><path
         d="m 26352,25704.2 -77,38.6 c 0,0 308.2,500.8 -38.5,539.3 -346.8,38.6 -655,115.6 -655,308.3 0,192.6 0,539.4 423.8,385.2 423.8,-154.1 385.3,-423.8 616.4,-462.3 231.2,-38.5 423.8,-77.1 346.8,-308.2 -77.1,-231.2 -231.2,-385.3 -154.1,-462.3 77,-77.1 -269.7,-462.4 -462.4,-38.6 z"
         id="path266" /></clipPath><linearGradient
       x1="0"
       y1="0"
       x2="1"
       y2="0"
       gradientUnits="userSpaceOnUse"
       gradientTransform="matrix(1709.53,-2261.56,2261.56,1709.53,25983.7,26839.6)"
       spreadMethod="pad"
       id="linearGradient274"><stop
         style="stop-opacity:1;stop-color:#09005d"
         offset="0"
         id="stop270" /><stop
         style="stop-opacity:1;stop-color:#1a0f91"
         offset="1"
         id="stop272" /></linearGradient><clipPath
       clipPathUnits="userSpaceOnUse"
       id="clipPath284"><path
         d="m 26269.8,25554.2 c 0,0 64,338.7 207,347.1 143,8.4 274.3,-116.4 121.9,-299.7 -189.5,-228 -328.9,-47.4 -328.9,-47.4 z"
         id="path282" /></clipPath><linearGradient
       x1="0"
       y1="0"
       x2="1"
       y2="0"
       gradientUnits="userSpaceOnUse"
       gradientTransform="matrix(1327.41,2518.69,2518.69,-1327.41,-16688.2,-56211.4)"
       spreadMethod="pad"
       id="linearGradient290"><stop
         style="stop-opacity:1;stop-color:#a22b25"
         offset="0"
         id="stop286" /><stop
         style="stop-opacity:1;stop-color:#c0423c"
         offset="1"
         id="stop288" /></linearGradient><clipPath
       clipPathUnits="userSpaceOnUse"
       id="clipPath300"><path
         d="m 27937.3,28703.7 c -65.1,65.1 -325.4,32.5 -227.8,-162.8 l -91.3,-137 c -25.2,-37.7 -31.7,-84.6 -17.5,-127.6 28.4,-86.2 84.4,-236 162.2,-354.5 -14.1,-449.6 -70.4,-1448.7 -296.1,-2229.1 -350.6,-1187.3 -992,-922.2 -992,-922.2 0,0 -193.8,123.6 -616.7,52.8 -879.4,-325.9 -1313.2,600.8 -1321.3,618.4 -330.8,800.7 -404.4,2067.2 -420.7,2590.1 77.8,118.5 133.8,268.3 162.2,354.4 14.2,43.1 7.7,90 -17.5,127.7 l -91.3,137 c 97.6,195.3 -162.7,227.8 -227.8,162.8 -65.1,-65.1 -292.9,-390.6 -260.4,-520.8 19.2,-76.7 83.6,-243.8 166.6,-334.8 -289.3,-945 -158.8,-1885.9 83.5,-2650.5 h -0.1 c 91.1,-774.7 683.8,-1252.9 1006.6,-1446.6 38.8,-813.6 499.7,-2936.2 499.7,-2936.2 l 1906.8,77.9 -23.5,2848.3 c 0,0 439.4,819.1 471.6,899.4 l 5.6,0.3 v 0 c 308.1,825.5 587.1,1958.5 238.5,3097.4 83,91 144.6,258.1 163.8,334.8 32.6,130.2 -198,455.7 -263.1,520.8 z"
         id="path298" /></clipPath><linearGradient
       x1="0"
       y1="0"
       x2="1"
       y2="0"
       gradientUnits="userSpaceOnUse"
       gradientTransform="matrix(-102.11,-2535.71,-2535.71,102.11,25578.9,18566)"
       spreadMethod="pad"
       id="linearGradient306"><stop
         style="stop-opacity:1;stop-color:#a22b25"
         offset="0"
         id="stop302" /><stop
         style="stop-opacity:1;stop-color:#c0423c"
         offset="1"
         id="stop304" /></linearGradient><clipPath
       clipPathUnits="userSpaceOnUse"
       id="clipPath316"><path
         d="m 24938,16500.1 c 1689.7,-69 3083,452.2 3855.1,2159.4 L 27320.9,23851 c -40.3,556.1 -147.1,1027.9 -730.4,895.8 -143,-284.6 -250.6,-555.7 -538.8,-817 -225.4,304.5 -403.1,589.3 -470.2,828.4 l -394.7,82.9 -565.4,-7987 c -13.2,-186.1 130.2,-346.4 316.6,-354 z"
         id="path314" /></clipPath><linearGradient
       x1="0"
       y1="0"
       x2="1"
       y2="0"
       gradientUnits="userSpaceOnUse"
       gradientTransform="matrix(-628.103,-10285.3,-10285.3,628.103,27333.9,28017.8)"
       spreadMethod="pad"
       id="linearGradient322"><stop
         style="stop-opacity:1;stop-color:#09005d"
         offset="0"
         id="stop318" /><stop
         style="stop-opacity:1;stop-color:#1a0f91"
         offset="1"
         id="stop320" /></linearGradient><clipPath
       clipPathUnits="userSpaceOnUse"
       id="clipPath332"><path
         d="m 26789.3,24766.8 565.1,-1034 c 668.5,1045.7 894.7,2203.5 844.2,3468.4 -140.9,-100.2 -333.6,-34.8 -538.2,68.7 -72.2,-1009.7 -263.7,-1856.9 -871.1,-2503.1 z"
         id="path330" /></clipPath><linearGradient
       x1="0"
       y1="0"
       x2="1"
       y2="0"
       gradientUnits="userSpaceOnUse"
       gradientTransform="matrix(-628.214,-10287.1,-10287.1,628.214,27637.8,27999.8)"
       spreadMethod="pad"
       id="linearGradient338"><stop
         style="stop-opacity:1;stop-color:#09005d"
         offset="0"
         id="stop334" /><stop
         style="stop-opacity:1;stop-color:#1a0f91"
         offset="1"
         id="stop336" /></linearGradient><clipPath
       clipPathUnits="userSpaceOnUse"
       id="clipPath348"><path
         d="m 25186.8,24841.1 c -662.1,401 -857.9,1351.8 -1018.4,2360.3 -196.9,-93 -359.7,-117.9 -490.2,-78.7 -40.1,-1470.5 460.6,-2856.7 1372.4,-4178.7 z"
         id="path346" /></clipPath><linearGradient
       x1="0"
       y1="0"
       x2="1"
       y2="0"
       gradientUnits="userSpaceOnUse"
       gradientTransform="matrix(-628.214,-10287.1,-10287.1,628.214,24567.2,28187.4)"
       spreadMethod="pad"
       id="linearGradient354"><stop
         style="stop-opacity:1;stop-color:#09005d"
         offset="0"
         id="stop350" /><stop
         style="stop-opacity:1;stop-color:#1a0f91"
         offset="1"
         id="stop352" /></linearGradient><clipPath
       clipPathUnits="userSpaceOnUse"
       id="clipPath364"><path
         d="m 26005.3,23497.4 c -266.6,441.7 -498.2,880.4 -682.7,1315.2 l 168.7,-35.5 c 157.8,-338 334.7,-671 531.2,-998.5 269.3,304.4 480.8,642.3 634.6,981 l 132.2,7.2 c -138.5,-373.8 -444,-808.6 -784,-1269.4 z"
         id="path362" /></clipPath><linearGradient
       x1="0"
       y1="0"
       x2="1"
       y2="0"
       gradientUnits="userSpaceOnUse"
       gradientTransform="matrix(238.254,-2348.5,-2348.5,-238.254,25753.5,27771.2)"
       spreadMethod="pad"
       id="linearGradient370"><stop
         style="stop-opacity:1;stop-color:#ff928e"
         offset="0"
         id="stop366" /><stop
         style="stop-opacity:1;stop-color:#fe7062"
         offset="1"
         id="stop368" /></linearGradient><clipPath
       clipPathUnits="userSpaceOnUse"
       id="clipPath380"><path
         d="m 14242,29983.5 -352.9,-430.8 c -47.9,-58.4 -118.8,-93.3 -194.3,-95.4 -189.7,-5.2 -571,40.1 -1003.6,401.2 -439.3,366.7 -495.1,710.1 -490.6,878 1.6,60.8 23.1,119.3 61.2,166.6 l 370.6,460.5 z"
         id="path378" /></clipPath><linearGradient
       x1="0"
       y1="0"
       x2="1"
       y2="0"
       gradientUnits="userSpaceOnUse"
       gradientTransform="matrix(493.527,987.051,987.051,-493.527,13743.1,31432.9)"
       spreadMethod="pad"
       id="linearGradient386"><stop
         style="stop-opacity:1;stop-color:#09005d"
         offset="0"
         id="stop382" /><stop
         style="stop-opacity:1;stop-color:#1a0f91"
         offset="1"
         id="stop384" /></linearGradient><clipPath
       clipPathUnits="userSpaceOnUse"
       id="clipPath396"><path
         d="m 14127.8,31344.5 537.2,-1515.4 c 27.6,-78 -42.9,-155.3 -123.1,-134.9 -391.3,99.7 -1292.8,317.8 -1735.2,329.3 -47.3,1.2 -87.7,34.5 -98.1,80.7 l -372.1,1654 c -16.8,74.9 50.7,141.4 125.2,123.4 393.2,-94.7 1384.7,-342.2 1621.8,-482.8 20.7,-12.3 36.3,-31.5 44.3,-54.3 z"
         id="path394" /></clipPath><linearGradient
       x1="0"
       y1="0"
       x2="1"
       y2="0"
       gradientUnits="userSpaceOnUse"
       gradientTransform="matrix(-850.907,-1140.22,-1140.22,850.907,15050.8,32862.5)"
       spreadMethod="pad"
       id="linearGradient402"><stop
         style="stop-opacity:1;stop-color:#09005d"
         offset="0"
         id="stop398" /><stop
         style="stop-opacity:1;stop-color:#1a0f91"
         offset="1"
         id="stop400" /></linearGradient><clipPath
       clipPathUnits="userSpaceOnUse"
       id="clipPath412"><path
         d="m 13493.3,30856.5 c 0,0 -901,374.9 -1034.4,357.8 -133.5,-17 -502.6,-432 -502.6,-432 -448.9,-157.3 -866.3,-427.8 -952.4,-757 0,0 647.8,125.4 785.6,370.3 137.7,244.9 195.9,342.9 195.9,342.9 0,0 410.3,418.4 496.9,438.6 0,0 1024.4,-396.8 1011,-320.6 z"
         id="path410" /></clipPath><linearGradient
       x1="0"
       y1="0"
       x2="1"
       y2="0"
       gradientUnits="userSpaceOnUse"
       gradientTransform="matrix(-663.709,-953.017,-953.017,663.709,11913.7,29989.4)"
       spreadMethod="pad"
       id="linearGradient418"><stop
         style="stop-opacity:1;stop-color:#09005d"
         offset="0"
         id="stop414" /><stop
         style="stop-opacity:1;stop-color:#1a0f91"
         offset="1"
         id="stop416" /></linearGradient><clipPath
       clipPathUnits="userSpaceOnUse"
       id="clipPath434"><path
         d="m 11834.9,14109.3 c -0.1,6.7 0.4,13.6 2.1,20.4 101.8,403.6 518.1,610.5 518.1,610.5 l 200.2,-15.7 c 115.1,-355.7 189.4,-529.4 170.9,-626.6 -0.5,-2.7 -1.4,-5.3 -2.1,-7.9 -165.2,-14.8 -505.1,-24.4 -889.2,19.3 z"
         id="path432" /></clipPath><linearGradient
       x1="0"
       y1="0"
       x2="1"
       y2="0"
       gradientUnits="userSpaceOnUse"
       gradientTransform="matrix(-894.078,0,0,-894.078,12729,14408.9)"
       spreadMethod="pad"
       id="linearGradient440"><stop
         style="stop-opacity:1;stop-color:#09005d"
         offset="0"
         id="stop436" /><stop
         style="stop-opacity:1;stop-color:#1a0f91"
         offset="1"
         id="stop438" /></linearGradient><clipPath
       clipPathUnits="userSpaceOnUse"
       id="clipPath452"><path
         d="m 12190.2,15051.8 87.7,-422 c 6.4,-30.9 30.2,-54.1 58.9,-56.8 35.3,-3.3 85.4,-5.2 135.9,2.2 45.2,6.6 76.7,52.6 68.7,101.9 l -61,374.7 z"
         id="path450" /></clipPath><linearGradient
       x1="0"
       y1="0"
       x2="1"
       y2="0"
       gradientUnits="userSpaceOnUse"
       gradientTransform="matrix(-178.495,-1557.78,-1557.78,178.495,12435.6,15458)"
       spreadMethod="pad"
       id="linearGradient458"><stop
         style="stop-opacity:1;stop-color:#febbba"
         offset="0"
         id="stop454" /><stop
         style="stop-opacity:1;stop-color:#ff928e"
         offset="1"
         id="stop456" /></linearGradient><clipPath
       clipPathUnits="userSpaceOnUse"
       id="clipPath470"><path
         d="m 15302,14125.4 c -1.4,3 -2.6,6.1 -4.6,8.9 -103.7,144.9 -367.8,433.4 -889.7,558.5 l -250.3,7.9 c 0,0 -111.5,-193.7 -113.6,-552.7 57.2,-23.3 167.8,-48.5 381.6,-54.5 330.6,-9.3 722.7,19.2 876.6,31.9 z"
         id="path468" /></clipPath><linearGradient
       x1="0"
       y1="0"
       x2="1"
       y2="0"
       gradientUnits="userSpaceOnUse"
       gradientTransform="matrix(1258.26,0,0,-1258.26,14043.8,14396.2)"
       spreadMethod="pad"
       id="linearGradient476"><stop
         style="stop-opacity:1;stop-color:#09005d"
         offset="0"
         id="stop472" /><stop
         style="stop-opacity:1;stop-color:#1a0f91"
         offset="1"
         id="stop474" /></linearGradient><clipPath
       clipPathUnits="userSpaceOnUse"
       id="clipPath486"><path
         d="m 14110.9,15080.1 c 2.8,-18.6 37.1,-302.2 50.4,-412.2 3.2,-26.2 22.1,-46.4 46,-49.2 42.6,-5.1 111.6,-9.8 171.9,2.6 32.6,6.7 56.2,38 56.2,74.3 v 445.3 z"
         id="path484" /></clipPath><linearGradient
       x1="0"
       y1="0"
       x2="1"
       y2="0"
       gradientUnits="userSpaceOnUse"
       gradientTransform="matrix(-166.97,-1457.2,-1457.2,166.97,14315.9,15258.7)"
       spreadMethod="pad"
       id="linearGradient492"><stop
         style="stop-opacity:1;stop-color:#febbba"
         offset="0"
         id="stop488" /><stop
         style="stop-opacity:1;stop-color:#ff928e"
         offset="1"
         id="stop490" /></linearGradient><clipPath
       clipPathUnits="userSpaceOnUse"
       id="clipPath504"><path
         d="m 11556.3,24733.5 c 0,0 1691.5,267 3026.9,-89.1 l -89.1,-1379.9 c 0,0 -356.1,-1914.1 -623.2,-2759.8 0,0 -1023.8,-178.1 -1513.4,89 0,0 -400.6,2403.7 -623.2,2759.8 0,0 -222.6,934.8 -178,1380 z"
         id="path502" /></clipPath><linearGradient
       x1="0"
       y1="0"
       x2="1"
       y2="0"
       gradientUnits="userSpaceOnUse"
       gradientTransform="matrix(-102.108,-1690.47,-1690.47,102.108,13281.8,28206)"
       spreadMethod="pad"
       id="linearGradient510"><stop
         style="stop-opacity:1;stop-color:#ff928e"
         offset="0"
         id="stop506" /><stop
         style="stop-opacity:1;stop-color:#fe7062"
         offset="1"
         id="stop508" /></linearGradient><clipPath
       clipPathUnits="userSpaceOnUse"
       id="clipPath520"><path
         d="m 12731.3,25949.8 -168.5,-1139.6 c 0,0 470.8,-216.2 800.4,9.3 l -70.9,804.2 z"
         id="path518" /></clipPath><linearGradient
       x1="0"
       y1="0"
       x2="1"
       y2="0"
       gradientUnits="userSpaceOnUse"
       gradientTransform="matrix(800.426,0,0,-800.426,12562.8,25333.3)"
       spreadMethod="pad"
       id="linearGradient526"><stop
         style="stop-opacity:1;stop-color:#febbba"
         offset="0"
         id="stop522" /><stop
         style="stop-opacity:1;stop-color:#ff928e"
         offset="1"
         id="stop524" /></linearGradient><clipPath
       clipPathUnits="userSpaceOnUse"
       id="clipPath536"><path
         d="m 13456.8,26691.8 c 5.4,-9.6 106.9,-584.3 169.4,-940 25.9,-146.9 -82.2,-283.4 -231.1,-292.3 l -136.4,-8 c -250.6,-14.9 -471.4,163.6 -509.3,411.7 l -98.7,644.4 c 0,0 677.3,417.9 806.1,184.2 z"
         id="path534" /></clipPath><linearGradient
       x1="0"
       y1="0"
       x2="1"
       y2="0"
       gradientUnits="userSpaceOnUse"
       gradientTransform="matrix(1063.14,975.84,975.84,-1063.14,79685.6,87133.9)"
       spreadMethod="pad"
       id="linearGradient542"><stop
         style="stop-opacity:1;stop-color:#febbba"
         offset="0"
         id="stop538" /><stop
         style="stop-opacity:1;stop-color:#ff928e"
         offset="1"
         id="stop540" /></linearGradient><clipPath
       clipPathUnits="userSpaceOnUse"
       id="clipPath552"><path
         d="m 12503.7,26506 c -52.3,65 -97.9,170.2 13.4,280.7 112.8,112 240.7,84.1 321.9,46.5 35.9,-16.6 80.1,-9.2 105.7,21 11.3,13.4 28.2,22.6 53.2,19.8 47.2,-5.3 89.3,25.8 94.9,72.9 9.6,80.8 52.6,176 195.5,203.6 262.1,50.6 392.8,-211.6 388.1,-395.9 -4.7,-184.4 -291.9,-223.1 -454.8,-192.5 -119.7,22.5 -223.2,-82.7 -269.8,-140.2 -16.8,-20.8 -23.1,-48.1 -17.1,-74.2 l 41.5,-178.1 c -28.7,-55.4 -56.9,-111.9 -97.2,-159.1 -29,-34 -60.8,-52.8 -94.6,-60.7 -48.8,90.9 -185.5,106.3 -249,108.4 -24.3,0.7 -47,11.5 -62.9,29.8 -47.9,54.9 -122.9,177.5 20.6,297.9 35.7,29.9 39.8,83.8 10.6,120.1 z"
         id="path550" /></clipPath><linearGradient
       x1="0"
       y1="0"
       x2="1"
       y2="0"
       gradientUnits="userSpaceOnUse"
       gradientTransform="matrix(1264.75,697.295,697.295,-1264.75,12387.9,26226.7)"
       spreadMethod="pad"
       id="linearGradient558"><stop
         style="stop-opacity:1;stop-color:#09005d"
         offset="0"
         id="stop554" /><stop
         style="stop-opacity:1;stop-color:#1a0f91"
         offset="1"
         id="stop556" /></linearGradient><clipPath
       clipPathUnits="userSpaceOnUse"
       id="clipPath568"><path
         d="m 12831.7,25759.1 c 0,0 -5.7,321.6 -135.8,351.8 -130.1,30.2 -270.5,-63.9 -159.2,-256.4 138.4,-239.5 295,-95.4 295,-95.4 z"
         id="path566" /></clipPath><linearGradient
       x1="0"
       y1="0"
       x2="1"
       y2="0"
       gradientUnits="userSpaceOnUse"
       gradientTransform="matrix(1063.16,975.852,975.852,-1063.16,79544.7,87288.4)"
       spreadMethod="pad"
       id="linearGradient574"><stop
         style="stop-opacity:1;stop-color:#febbba"
         offset="0"
         id="stop570" /><stop
         style="stop-opacity:1;stop-color:#ff928e"
         offset="1"
         id="stop572" /></linearGradient><clipPath
       clipPathUnits="userSpaceOnUse"
       id="clipPath584"><path
         d="m 12317.6,23196.4 c 0,0 -3822.03,1040.4 -1924.2,3715.9 l 128.4,-181.8 c 0,0 -533.8,-1911.8 1360.3,-2084 0,0 452.6,-1165.6 435.5,-1450.1 z"
         id="path582" /></clipPath><linearGradient
       x1="0"
       y1="0"
       x2="1"
       y2="0"
       gradientUnits="userSpaceOnUse"
       gradientTransform="matrix(-385.745,-1293.38,-1293.38,385.745,12621.8,29612.2)"
       spreadMethod="pad"
       id="linearGradient590"><stop
         style="stop-opacity:1;stop-color:#ff928e"
         offset="0"
         id="stop586" /><stop
         style="stop-opacity:1;stop-color:#fe7062"
         offset="1"
         id="stop588" /></linearGradient><clipPath
       clipPathUnits="userSpaceOnUse"
       id="clipPath600"><path
         d="m 10380.5,26898.6 c 0,0 -43.1,516.6 215.2,559.6 258.3,43.1 344.4,-215.3 387.4,-344.4 43.1,-129.1 -387.4,-387.4 -473.5,-387.4 -86.1,0 -129.1,172.2 -129.1,172.2 z"
         id="path598" /></clipPath><linearGradient
       x1="0"
       y1="0"
       x2="1"
       y2="0"
       gradientUnits="userSpaceOnUse"
       gradientTransform="matrix(-452.005,-1485.16,-1485.16,452.005,10864,27711)"
       spreadMethod="pad"
       id="linearGradient606"><stop
         style="stop-opacity:1;stop-color:#febbba"
         offset="0"
         id="stop602" /><stop
         style="stop-opacity:1;stop-color:#ff928e"
         offset="1"
         id="stop604" /></linearGradient><clipPath
       clipPathUnits="userSpaceOnUse"
       id="clipPath616"><path
         d="m 13696.5,23067.3 c 0,0 3822,1040.4 1924.2,3715.9 l -128.4,-181.8 c 0,0 580.4,-1856.2 -1313.7,-2028.4 0,0 -499.2,-1221.2 -482.1,-1505.7 z"
         id="path614" /></clipPath><linearGradient
       x1="0"
       y1="0"
       x2="1"
       y2="0"
       gradientUnits="userSpaceOnUse"
       gradientTransform="matrix(317.672,-987.053,987.053,317.672,-39172.4,192444)"
       spreadMethod="pad"
       id="linearGradient622"><stop
         style="stop-opacity:1;stop-color:#ff928e"
         offset="0"
         id="stop618" /><stop
         style="stop-opacity:1;stop-color:#fe7062"
         offset="1"
         id="stop620" /></linearGradient><clipPath
       clipPathUnits="userSpaceOnUse"
       id="clipPath632"><path
         d="m 15633.6,26769.4 c 0,0 43.1,516.6 -215.2,559.7 -258.3,43 -344.4,-215.3 -387.5,-344.4 -43,-129.2 387.5,-387.5 473.6,-387.5 86.1,0 129.1,172.2 129.1,172.2 z"
         id="path630" /></clipPath><linearGradient
       x1="0"
       y1="0"
       x2="1"
       y2="0"
       gradientUnits="userSpaceOnUse"
       gradientTransform="matrix(452.004,-1485.16,1485.16,452.004,15150.1,27581.8)"
       spreadMethod="pad"
       id="linearGradient638"><stop
         style="stop-opacity:1;stop-color:#febbba"
         offset="0"
         id="stop634" /><stop
         style="stop-opacity:1;stop-color:#ff928e"
         offset="1"
         id="stop636" /></linearGradient><clipPath
       clipPathUnits="userSpaceOnUse"
       id="clipPath648"><path
         d="m 11722.2,24760 112.7,-7967.4 c 953.7,-324.9 1955.6,-315.6 3001.6,0 L 14494,24667 c -209.2,65.3 -659.7,122.4 -1004.7,145.5 l -348.9,-803.5 -676.3,813.7 c -112.6,9 -524.3,-22.2 -741.9,-62.7 z"
         id="path646" /></clipPath><linearGradient
       x1="0"
       y1="0"
       x2="1"
       y2="0"
       gradientUnits="userSpaceOnUse"
       gradientTransform="matrix(-7011.49,-13750.7,-13750.7,7011.49,17226.2,28516.6)"
       spreadMethod="pad"
       id="linearGradient654"><stop
         style="stop-opacity:1;stop-color:#09005d"
         offset="0"
         id="stop650" /><stop
         style="stop-opacity:1;stop-color:#1a0f91"
         offset="1"
         id="stop652" /></linearGradient><clipPath
       clipPathUnits="userSpaceOnUse"
       id="clipPath664"><path
         d="m 13174.2,23599.3 -963.6,1216.4 148.8,13.9 794.9,-1003.5 c 180.8,384.9 356.5,749.3 496.8,974.6 l 149.9,-15.6 c -180.5,-276.9 -400.9,-719.7 -626.8,-1185.8 z"
         id="path662" /></clipPath><linearGradient
       x1="0"
       y1="0"
       x2="1"
       y2="0"
       gradientUnits="userSpaceOnUse"
       gradientTransform="matrix(1364.83,-888.996,-888.996,-1364.83,12852.1,24606.1)"
       spreadMethod="pad"
       id="linearGradient670"><stop
         style="stop-opacity:1;stop-color:#ff928e"
         offset="0"
         id="stop666" /><stop
         style="stop-opacity:1;stop-color:#fe7062"
         offset="1"
         id="stop668" /></linearGradient><clipPath
       clipPathUnits="userSpaceOnUse"
       id="clipPath680"><path
         d="m 9864.73,25916.3 c 209.67,-49 420.07,-34.9 631.47,62.6 30.8,-726.8 595.2,-1123.9 1226,-1218.9 l 23.3,-1646.7 c -1300.5,683.7 -2026.27,1579.8 -1880.77,2803 z"
         id="path678" /></clipPath><linearGradient
       x1="0"
       y1="0"
       x2="1"
       y2="0"
       gradientUnits="userSpaceOnUse"
       gradientTransform="matrix(6637.08,-6058.46,-6058.46,-6637.08,7520.89,27710.1)"
       spreadMethod="pad"
       id="linearGradient686"><stop
         style="stop-opacity:1;stop-color:#09005d"
         offset="0"
         id="stop682" /><stop
         style="stop-opacity:1;stop-color:#1a0f91"
         offset="1"
         id="stop684" /></linearGradient><clipPath
       clipPathUnits="userSpaceOnUse"
       id="clipPath696"><path
         d="m 15541,26078.5 c 190.7,-51 363.2,5.1 525,125 386.9,-1399.3 -285.7,-2268.9 -1512.3,-2909.4 -60.3,433.1 -79.6,891.2 -59.7,1372.9 556.4,99.3 919.5,635.7 1047,1411.5 z"
         id="path694" /></clipPath><linearGradient
       x1="0"
       y1="0"
       x2="1"
       y2="0"
       gradientUnits="userSpaceOnUse"
       gradientTransform="matrix(-6058.46,-4560.87,-4560.87,6058.46,18690.9,27385.8)"
       spreadMethod="pad"
       id="linearGradient702"><stop
         style="stop-opacity:1;stop-color:#09005d"
         offset="0"
         id="stop698" /><stop
         style="stop-opacity:1;stop-color:#1a0f91"
         offset="1"
         id="stop700" /></linearGradient><clipPath
       clipPathUnits="userSpaceOnUse"
       id="clipPath712"><path
         d="m 21334.4,29431.1 129.7,-550.3 c 17.6,-74.7 2,-153.4 -42.9,-215.6 -112.8,-156.3 -384.7,-435.8 -942.7,-561.8 -566.8,-128.1 -878.2,38.8 -1010.9,145.9 -48,38.8 -81.9,92.3 -96.6,152.2 l -142.7,583.1 z"
         id="path710" /></clipPath><linearGradient
       x1="0"
       y1="0"
       x2="1"
       y2="0"
       gradientUnits="userSpaceOnUse"
       gradientTransform="matrix(-595.637,4475.77,4475.77,595.637,20597.9,27046.4)"
       spreadMethod="pad"
       id="linearGradient718"><stop
         style="stop-opacity:1;stop-color:#09005d"
         offset="0"
         id="stop714" /><stop
         style="stop-opacity:1;stop-color:#1a0f91"
         offset="1"
         id="stop716" /></linearGradient><clipPath
       clipPathUnits="userSpaceOnUse"
       id="clipPath728"><path
         d="m 20166.4,30178.8 1553.5,-501.8 c 80,-25.8 98.8,-130.4 32.9,-182.5 -321.9,-254.1 -1054,-846.5 -1336.1,-1196.2 -30.2,-37.5 -82,-49.4 -125.7,-29.3 l -1563.5,720.4 c -70.7,32.6 -82.8,128 -22.3,177.1 319,258.6 1130.4,905.6 1390,1010 22.7,9.1 47.9,9.8 71.2,2.3 z"
         id="path726" /></clipPath><linearGradient
       x1="0"
       y1="0"
       x2="1"
       y2="0"
       gradientUnits="userSpaceOnUse"
       gradientTransform="matrix(-187.199,-2093.24,-2093.24,187.199,20460.3,31910.9)"
       spreadMethod="pad"
       id="linearGradient734"><stop
         style="stop-opacity:1;stop-color:#09005d"
         offset="0"
         id="stop730" /><stop
         style="stop-opacity:1;stop-color:#1a0f91"
         offset="1"
         id="stop732" /></linearGradient><clipPath
       clipPathUnits="userSpaceOnUse"
       id="clipPath744"><path
         d="m 20168.4,29366 c 0,0 -858.2,-495.3 -926.8,-613.5 -68.5,-118.2 38.4,-671.8 38.4,-671.8 -150.1,-459.2 -189.5,-962.7 22.9,-1235.2 0,0 298.5,599.8 186,862 -112.6,262.2 -155.7,369.5 -155.7,369.5 0,0 -84.3,589.1 -47.1,671.4 0,0 952.1,581.3 882.3,617.6 z"
         id="path742" /></clipPath><linearGradient
       x1="0"
       y1="0"
       x2="1"
       y2="0"
       gradientUnits="userSpaceOnUse"
       gradientTransform="matrix(1582.69,-936.001,-936.001,-1582.69,20121.7,27877.4)"
       spreadMethod="pad"
       id="linearGradient750"><stop
         style="stop-opacity:1;stop-color:#09005d"
         offset="0"
         id="stop746" /><stop
         style="stop-opacity:1;stop-color:#1a0f91"
         offset="1"
         id="stop748" /></linearGradient><clipPath
       clipPathUnits="userSpaceOnUse"
       id="clipPath766"><path
         d="m 18545.5,25277 c 17.3,-29.9 -114.5,-138.4 -294.2,-242.2 -179.8,-103.8 -339.6,-163.6 -356.9,-133.7 -17.3,30 114.4,138.5 294.2,242.3 179.8,103.8 339.5,163.6 356.9,133.6 z"
         id="path764" /></clipPath><linearGradient
       x1="0"
       y1="0"
       x2="1"
       y2="0"
       gradientUnits="userSpaceOnUse"
       gradientTransform="matrix(70.9352,-145.529,-165.7,-84.2723,18168.6,25194.4)"
       spreadMethod="pad"
       id="linearGradient772"><stop
         style="stop-opacity:1;stop-color:#09005d"
         offset="0"
         id="stop768" /><stop
         style="stop-opacity:1;stop-color:#1a0f91"
         offset="1"
         id="stop770" /></linearGradient><clipPath
       clipPathUnits="userSpaceOnUse"
       id="clipPath782"><path
         d="m 22516.4,25812 c -13.2,-38.7 -168.3,-82 -378.8,-82 -210.4,0 -383.3,43.6 -383.3,84.5 0,40.9 172.9,63.7 383.3,63.7 210.5,0 392.9,-25.2 378.8,-66.2 z"
         id="path780" /></clipPath><linearGradient
       x1="0"
       y1="0"
       x2="1"
       y2="0"
       gradientUnits="userSpaceOnUse"
       gradientTransform="matrix(-11.6541,-190.838,-190.838,11.6541,22143.6,25943.3)"
       spreadMethod="pad"
       id="linearGradient788"><stop
         style="stop-opacity:1;stop-color:#09005d"
         offset="0"
         id="stop784" /><stop
         style="stop-opacity:1;stop-color:#1a0f91"
         offset="1"
         id="stop786" /></linearGradient><clipPath
       clipPathUnits="userSpaceOnUse"
       id="clipPath798"><path
         d="m 18352.9,12985.8 -14.6,-336.3 c -2.7,-63.9 -48.6,-117.7 -111.3,-129.9 -105.9,-20.5 -276.3,-46.4 -445.4,-41.7 -74.2,2 -127.8,72.8 -110.9,145.1 30.8,131.8 90.6,330.8 189.6,452.8 l 369.6,28.8 c 68.3,5.4 125.9,-50.3 123,-118.8 z"
         id="path796" /></clipPath><linearGradient
       x1="0"
       y1="0"
       x2="1"
       y2="0"
       gradientUnits="userSpaceOnUse"
       gradientTransform="matrix(-712.582,-55.5342,55.5342,-712.582,18367,12815)"
       spreadMethod="pad"
       id="linearGradient804"><stop
         style="stop-opacity:1;stop-color:#09005d"
         offset="0"
         id="stop800" /><stop
         style="stop-opacity:1;stop-color:#1a0f91"
         offset="1"
         id="stop802" /></linearGradient><clipPath
       clipPathUnits="userSpaceOnUse"
       id="clipPath814"><path
         d="m 20943.6,17114.8 91,-362.1 c 0,0 -43.9,-2132.5 -15.1,-2981.9 4.5,-133.1 49.1,-261.6 127.6,-369.3 l 409.2,-561.6 -965.7,472.8 -27.2,111.2 134.9,219.6 -382.8,2355.3 c -22.5,138.3 -4.6,280.3 51.4,408.7 l 163,373.7 z"
         id="path812" /></clipPath><linearGradient
       x1="0"
       y1="0"
       x2="1"
       y2="0"
       gradientUnits="userSpaceOnUse"
       gradientTransform="matrix(-1959.54,11905.4,-11905.4,-1959.54,21597,10239.7)"
       spreadMethod="pad"
       id="linearGradient820"><stop
         style="stop-opacity:1;stop-color:#febbba"
         offset="0"
         id="stop816" /><stop
         style="stop-opacity:1;stop-color:#ff928e"
         offset="1"
         id="stop818" /></linearGradient><clipPath
       clipPathUnits="userSpaceOnUse"
       id="clipPath830"><path
         d="m 21623.8,12759.2 -294.6,-23 c -55.2,-4.3 -109.2,17 -146.2,58 -101.2,112.2 -309.6,330.2 -401.1,329.2 -123.1,-1.3 -73.5,-435.6 -73.5,-435.6 l -68.7,-5.4 -129.1,534.4 c -32.5,134.4 24.7,274.6 141.9,347.9 0,0 44.2,-204.9 203.2,-284.6 158.9,-79.8 650.5,-371.5 650.5,-371.5 0,0 56.5,12.6 120,6.2 94.3,-9.6 92.1,-148.3 -2.4,-155.6 z"
         id="path828" /></clipPath><linearGradient
       x1="0"
       y1="0"
       x2="1"
       y2="0"
       gradientUnits="userSpaceOnUse"
       gradientTransform="matrix(-1153.06,-89.8621,89.8621,-1153.06,21667.6,13203.2)"
       spreadMethod="pad"
       id="linearGradient836"><stop
         style="stop-opacity:1;stop-color:#09005d"
         offset="0"
         id="stop832" /><stop
         style="stop-opacity:1;stop-color:#1a0f91"
         offset="1"
         id="stop834" /></linearGradient><clipPath
       clipPathUnits="userSpaceOnUse"
       id="clipPath846"><path
         d="m 19692.6,16841.9 c 0,0 -1042.9,-2417.1 -1196.2,-2962.3 -153.2,-545.3 -186.9,-992.8 -186.2,-1034.9 1,-65.7 -75.5,-134.8 -299.8,-152.3 -115.8,-9.1 -176.1,32.9 -207.4,75.7 -26.6,36.5 -31.6,84.3 -14.8,126.3 59.6,148.8 248.6,624.2 315.6,838.3 80,255.8 206.1,1396.1 292.9,1796 86.7,399.8 186.1,833.9 666.1,1264.1 0,0 323.6,370.5 629.8,49.1 z"
         id="path844" /></clipPath><linearGradient
       x1="0"
       y1="0"
       x2="1"
       y2="0"
       gradientUnits="userSpaceOnUse"
       gradientTransform="matrix(-1960.09,11908.7,-11908.7,-1960.09,19548.2,9900.4)"
       spreadMethod="pad"
       id="linearGradient852"><stop
         style="stop-opacity:1;stop-color:#febbba"
         offset="0"
         id="stop848" /><stop
         style="stop-opacity:1;stop-color:#ff928e"
         offset="1"
         id="stop850" /></linearGradient><clipPath
       clipPathUnits="userSpaceOnUse"
       id="clipPath862"><path
         d="m 20039.9,25037.1 c 0,0 -1226.8,377.5 -1428.7,-902.2 -201.9,-1279.6 -341.4,-1689.8 -645.6,-1469.1 0,0 50.1,-478.1 634.1,-264.4 1516,554.6 593.4,2330.5 1440.2,2635.7 z"
         id="path860" /></clipPath><linearGradient
       x1="0"
       y1="0"
       x2="1"
       y2="0"
       gradientUnits="userSpaceOnUse"
       gradientTransform="matrix(-368.131,1710.64,-1710.64,-368.131,21764.9,11013.6)"
       spreadMethod="pad"
       id="linearGradient868"><stop
         style="stop-opacity:1;stop-color:#e1473d"
         offset="0"
         id="stop864" /><stop
         style="stop-opacity:1;stop-color:#e9605a"
         offset="1"
         id="stop866" /></linearGradient><clipPath
       clipPathUnits="userSpaceOnUse"
       id="clipPath878"><path
         d="m 19786,22932.3 c -51.2,50.1 -813.9,720.3 -1129.2,1549.6 -315.3,829.4 -340.1,1411.4 -340.1,1411.4 0,0 166.6,168.7 83.9,257.8 -82.6,89.2 -75.1,159.5 -164.4,165.7 -89.3,6.1 -200.5,17 -161.5,-151.4 39,-168.5 -159.3,-233.8 -109.8,-331.7 49.2,-97.5 356.9,-2761.3 1556.8,-3487.3 146.5,-88.7 485.4,-322.8 491.2,-325.4 445.1,241.7 -144.6,830.9 -226.9,911.3 z"
         id="path876" /></clipPath><linearGradient
       x1="0"
       y1="0"
       x2="1"
       y2="0"
       gradientUnits="userSpaceOnUse"
       gradientTransform="matrix(722.089,-4207.14,-4207.14,-722.089,18974.1,24624.8)"
       spreadMethod="pad"
       id="linearGradient884"><stop
         style="stop-opacity:1;stop-color:#febbba"
         offset="0"
         id="stop880" /><stop
         style="stop-opacity:1;stop-color:#ff928e"
         offset="1"
         id="stop882" /></linearGradient><clipPath
       clipPathUnits="userSpaceOnUse"
       id="clipPath894"><path
         d="m 21157.9,23217.9 c 36.4,61.6 669.7,896.1 759,1778.8 89.2,882.8 -37.8,1451.3 -37.8,1451.3 0,0 -204.7,119.7 -148,227.2 56.7,107.5 31.1,173.5 115.7,202.7 84.7,29.1 189.3,68.5 195.3,-104.4 6.1,-172.8 214.6,-184.4 192.2,-291.8 -22.3,-106.8 250.8,-2851.7 -719.5,-3864.2 -118.5,-123.6 -264,-345.3 -268.9,-349.4 -492.6,117.9 -146.7,850.8 -88,949.8 z"
         id="path892" /></clipPath><linearGradient
       x1="0"
       y1="0"
       x2="1"
       y2="0"
       gradientUnits="userSpaceOnUse"
       gradientTransform="matrix(394.355,-4250.44,4250.44,394.355,21564.1,25051.5)"
       spreadMethod="pad"
       id="linearGradient900"><stop
         style="stop-opacity:1;stop-color:#febbba"
         offset="0"
         id="stop896" /><stop
         style="stop-opacity:1;stop-color:#ff928e"
         offset="1"
         id="stop898" /></linearGradient><clipPath
       clipPathUnits="userSpaceOnUse"
       id="clipPath910"><path
         d="m 20169.1,20706.4 c 8.4,1255.4 -460.9,2298.8 -460.9,2298.8 256.6,287.9 458.2,263.7 755.8,401.5 268.7,124.6 586.2,80.2 810.4,-113.5 246.6,-213.1 515,-514.9 479,-797.4 -38,-299 -479.3,-1810.7 -479.3,-1810.7 0,0 -494.9,-283.3 -1105,21.3 z"
         id="path908" /></clipPath><linearGradient
       x1="0"
       y1="0"
       x2="1"
       y2="0"
       gradientUnits="userSpaceOnUse"
       gradientTransform="matrix(226.908,-1962.76,-1962.76,-226.908,20308.1,26459.4)"
       spreadMethod="pad"
       id="linearGradient916"><stop
         style="stop-opacity:1;stop-color:#ff928e"
         offset="0"
         id="stop912" /><stop
         style="stop-opacity:1;stop-color:#fe7062"
         offset="1"
         id="stop914" /></linearGradient><clipPath
       clipPathUnits="userSpaceOnUse"
       id="clipPath926"><path
         d="m 20509.4,24248.7 -168.8,-1073.4 c -16.6,-103.4 235.9,-161.2 337.1,-133.8 165.7,44.8 218,108.9 280.2,245.4 6.4,13.9 8.9,29.3 9.8,44.5 l 47.9,808.1 c 3.8,64.1 -35.3,123 -95.8,144.4 l -220.2,77.8 c -84.7,29.9 -175.9,-24.2 -190.2,-113 z"
         id="path924" /></clipPath><linearGradient
       x1="0"
       y1="0"
       x2="1"
       y2="0"
       gradientUnits="userSpaceOnUse"
       gradientTransform="matrix(-73.99,2703.54,-2703.54,-73.99,20706.7,22604.5)"
       spreadMethod="pad"
       id="linearGradient932"><stop
         style="stop-opacity:1;stop-color:#febbba"
         offset="0"
         id="stop928" /><stop
         style="stop-opacity:1;stop-color:#ff928e"
         offset="1"
         id="stop930" /></linearGradient><clipPath
       clipPathUnits="userSpaceOnUse"
       id="clipPath942"><path
         d="m 20694,25179.1 c 0,0 356.8,-97 652.3,-553.9 295.4,-456.9 154.4,-705.3 -56.8,-765.3 -211.2,-59.9 -533.8,-98.7 -917,170.5 -383.2,269.2 -140.2,1258.5 321.5,1148.7 z"
         id="path940" /></clipPath><linearGradient
       x1="0"
       y1="0"
       x2="1"
       y2="0"
       gradientUnits="userSpaceOnUse"
       gradientTransform="matrix(-1489.19,-1335.02,1335.02,-1489.19,21289.5,24850.6)"
       spreadMethod="pad"
       id="linearGradient948"><stop
         style="stop-opacity:1;stop-color:#febbba"
         offset="0"
         id="stop944" /><stop
         style="stop-opacity:1;stop-color:#ff928e"
         offset="1"
         id="stop946" /></linearGradient><clipPath
       clipPathUnits="userSpaceOnUse"
       id="clipPath958"><path
         d="m 20566.3,24321.7 c 0,0 -351.1,679.4 280.6,773.3 l 163,-84 c 0,0 178.8,427.1 -227.9,564.6 -406.6,137.5 -952.5,-107.5 -1045.4,-642.8 -92.9,-535.4 46.8,-854.1 349.8,-1063.4 303,-209.2 376.6,84.4 376.6,84.4 0,0 -178,209.9 -134.7,340.9 43.2,131 201.2,1.3 201.2,1.3 z"
         id="path956" /></clipPath><linearGradient
       x1="0"
       y1="0"
       x2="1"
       y2="0"
       gradientUnits="userSpaceOnUse"
       gradientTransform="matrix(-368.129,1710.63,-1710.63,-368.129,23292.6,11342.4)"
       spreadMethod="pad"
       id="linearGradient964"><stop
         style="stop-opacity:1;stop-color:#e1473d"
         offset="0"
         id="stop960" /><stop
         style="stop-opacity:1;stop-color:#e9605a"
         offset="1"
         id="stop962" /></linearGradient><clipPath
       clipPathUnits="userSpaceOnUse"
       id="clipPath974"><path
         d="m 20563.1,24232.7 c 0,0 -178.4,350.3 -330.4,180.6 -152.1,-169.6 185.5,-320.7 315.8,-366.9 z"
         id="path972" /></clipPath><linearGradient
       x1="0"
       y1="0"
       x2="1"
       y2="0"
       gradientUnits="userSpaceOnUse"
       gradientTransform="matrix(-1489.18,-1335.02,1335.02,-1489.18,21228.7,24982)"
       spreadMethod="pad"
       id="linearGradient980"><stop
         style="stop-opacity:1;stop-color:#febbba"
         offset="0"
         id="stop976" /><stop
         style="stop-opacity:1;stop-color:#ff928e"
         offset="1"
         id="stop978" /></linearGradient><clipPath
       clipPathUnits="userSpaceOnUse"
       id="clipPath990"><path
         d="m 21762.7,25822.6 c 216.9,-80.1 468.2,-71.7 743.8,-0.9 5.7,1.5 11,-3.4 10,-9.1 -203.4,-1200 -428.9,-2354.4 -731.7,-3217 l -517.1,852.3 c 332.6,482.4 423.9,1402.2 488.5,2370.5 0.2,3.2 3.5,5.3 6.5,4.2 z"
         id="path988" /></clipPath><linearGradient
       x1="0"
       y1="0"
       x2="1"
       y2="0"
       gradientUnits="userSpaceOnUse"
       gradientTransform="matrix(-1139.15,-11325.8,-11325.8,1139.15,22069.3,26391.2)"
       spreadMethod="pad"
       id="linearGradient996"><stop
         style="stop-opacity:1;stop-color:#09005d"
         offset="0"
         id="stop992" /><stop
         style="stop-opacity:1;stop-color:#1a0f91"
         offset="1"
         id="stop994" /></linearGradient><clipPath
       clipPathUnits="userSpaceOnUse"
       id="clipPath1006"><path
         d="m 19759,23114.3 c -604.3,482.8 -969.7,1276.5 -1213.5,2162.7 -199.9,-196.2 -419.5,-320.5 -654.2,-376.4 529.3,-1263.3 1107.9,-2322.8 1816.9,-2844 z"
         id="path1004" /></clipPath><linearGradient
       x1="0"
       y1="0"
       x2="1"
       y2="0"
       gradientUnits="userSpaceOnUse"
       gradientTransform="matrix(-1139.16,-11325.9,-11325.9,1139.16,19122.5,26687.6)"
       spreadMethod="pad"
       id="linearGradient1012"><stop
         style="stop-opacity:1;stop-color:#09005d"
         offset="0"
         id="stop1008" /><stop
         style="stop-opacity:1;stop-color:#1a0f91"
         offset="1"
         id="stop1010" /></linearGradient><clipPath
       clipPathUnits="userSpaceOnUse"
       id="clipPath1022"><path
         d="m 21930.2,15137 c -1637.9,-141.3 -2596.3,-240.8 -3794.3,895.6 -77.6,73.6 -108.2,184.1 -78.9,286.9 l 1651.2,5792.4 c 40.3,556.2 -329.4,1018.9 485.9,1226 143,-284.6 233,-517 502.6,-786.6 204.4,302.2 285.2,657.4 352.3,896.6 l 265.5,4.3 388.5,-599.9 c 65,-100.5 93,-220.3 78.7,-339.1 -155.9,-1297.9 115.6,-4304.1 362.4,-7121.9 11.3,-129.2 -84.6,-243.2 -213.9,-254.3 z"
         id="path1020" /></clipPath><linearGradient
       x1="0"
       y1="0"
       x2="1"
       y2="0"
       gradientUnits="userSpaceOnUse"
       gradientTransform="matrix(-1139.15,-11325.8,-11325.8,1139.15,21169.2,26481.7)"
       spreadMethod="pad"
       id="linearGradient1028"><stop
         style="stop-opacity:1;stop-color:#09005d"
         offset="0"
         id="stop1024" /><stop
         style="stop-opacity:1;stop-color:#1a0f91"
         offset="1"
         id="stop1026" /></linearGradient><clipPath
       clipPathUnits="userSpaceOnUse"
       id="clipPath1038"><path
         d="m 20742.5,22165.1 c -332,360.5 -589.9,735.8 -729.1,1115.5 l 110.7,38 c 158.8,-359.2 340.2,-677 598.3,-947.5 187,326.3 316.5,668 426.2,1065.6 l 119.1,11.2 c -108.5,-459 -296.4,-895.9 -525.2,-1282.8 z"
         id="path1036" /></clipPath><linearGradient
       x1="0"
       y1="0"
       x2="1"
       y2="0"
       gradientUnits="userSpaceOnUse"
       gradientTransform="matrix(22.6897,-1645.08,-1645.08,-22.6897,20610,25580.3)"
       spreadMethod="pad"
       id="linearGradient1044"><stop
         style="stop-opacity:1;stop-color:#ff928e"
         offset="0"
         id="stop1040" /><stop
         style="stop-opacity:1;stop-color:#fe7062"
         offset="1"
         id="stop1042" /></linearGradient><clipPath
       clipPathUnits="userSpaceOnUse"
       id="clipPath1058"><path
         d="M 6284.88,8868 27223.8,7489 c 698.8,-128.8 988.9,-2608.1 -120.3,-2750 L 6383.84,4946.8 C 5341.24,6217 5385.62,8457.3 6284.88,8868 Z"
         id="path1056" /></clipPath><linearGradient
       x1="0"
       y1="0"
       x2="1"
       y2="0"
       gradientUnits="userSpaceOnUse"
       gradientTransform="matrix(-21238.7,-17562.7,-17562.7,21238.7,29069.6,16984.9)"
       spreadMethod="pad"
       id="linearGradient1064"><stop
         style="stop-opacity:1;stop-color:#ff928e"
         offset="0"
         id="stop1060" /><stop
         style="stop-opacity:1;stop-color:#fe7062"
         offset="1"
         id="stop1062" /></linearGradient></defs><sodipodi:namedview
     pagecolor="#ffffff"
     bordercolor="#666666"
     borderopacity="1"
     objecttolerance="10"
     gridtolerance="10"
     guidetolerance="10"
     inkscape:pageopacity="0"
     inkscape:pageshadow="2"
     inkscape:window-width="640"
     inkscape:window-height="480"
     id="namedview4" /><g
     id="g10"
     inkscape:groupmode="layer"
     inkscape:label="ink_ext_XXXXXX"
     transform="matrix(1.3333333,0,0,-1.3333333,0,4946.6667)"><g
       id="g12"
       transform="scale(0.1)"><path
         d="M 0,0 H 37100 V 37100 H 0 Z"
         style="fill:#ffffff;fill-opacity:1;fill-rule:nonzero;stroke:none"
         id="path14" /><g
         id="g16"><g
           id="g18"
           clip-path="url(#clipPath22)"><path
             d="m 18830.8,4550 c -1669.6,0 -2944.9,233.4 -3453.6,336.8 C 13532.4,5261.4 9966.55,5985.7 7388.48,9017.4 4877.88,11969.9 4234.99,16016.3 4902.4,19797 5926.64,15059.1 9004.16,7956.3 18244.3,7955.8 c 949,-0.1 1961.9,74.7 3045.3,234.8 0,0 -1932.5,2862.4 -4938.3,6230.3 643.1,-192.7 1337.3,-355 2084.8,-482.4 0,0 -2833.9,9916.9 -8015.9,15473.7 1498.2,1223.2 3519.6,2341 6118.6,2680.8 589.7,77.1 1196,116 1810.1,116 3129.9,0 6474.8,-1011 9012.3,-3137 C 33732.6,23734.1 33279,12950.5 28995.1,8440.5 28429.7,7845.4 27894.9,7461.6 27472.2,7158.4 24527.2,5045.3 21261.6,4550 18830.8,4550 M 9101.32,21178 c -1041.35,765.3 -2114.49,1459.2 -3206.69,2043.1 345.26,839.7 756.62,1639.4 1226.21,2379.8 198.67,313.2 702.99,1138.4 1542.55,2103.3 C 8428.63,25909.6 8365.68,23498 9101.32,21178"
             style="fill:url(#linearGradient28);fill-opacity:1;fill-rule:nonzero;stroke:none"
             id="path30" /></g></g><path
         d="m 8663.39,27704.2 c 90.05,688.4 205.35,1286 310.54,1753.1 72.23,320.7 351.65,509 638.95,509 164.52,0 331.67,-61.8 463.82,-195.9 115.7,-117.3 230,-236.6 343.5,-358.2 -697.18,-569.2 -1280.8,-1161 -1756.81,-1708"
         style="fill:#cad9fc;fill-opacity:1;fill-rule:nonzero;stroke:none"
         id="path32" /><g
         id="g34"><g
           id="g36"
           clip-path="url(#clipPath40)"><path
             d="m 18436.1,13938.5 c -747.5,127.4 -1441.7,289.7 -2084.8,482.4 -2019.1,2262.3 -4522.5,4752.6 -7249.98,6757.1 -735.64,2320 -672.69,4731.6 -437.93,6526.2 476.01,547 1059.63,1138.8 1756.81,1708 5182,-5556.8 8015.9,-15473.7 8015.9,-15473.7 m -8308.2,12652.8 c -11.7,0 -23.8,-10 -20.1,-25 1861.5,-7630.7 6126.1,-11307.4 7219.4,-12045.4 5.6,-3.7 11.2,-5.3 16.5,-5.3 23.1,0 40.3,30.8 18.5,50.2 -4222.1,3765.6 -6621.5,10250.9 -7216.4,12012.2 -3.1,9.3 -10.4,13.3 -17.9,13.3"
             style="fill:url(#linearGradient46);fill-opacity:1;fill-rule:nonzero;stroke:none"
             id="path48" /></g></g><g
         id="g50"><g
           id="g52"
           clip-path="url(#clipPath56)"><path
             d="m 17343.7,14515.6 c -5.3,0 -10.9,1.6 -16.5,5.3 -1093.3,738 -5357.9,4414.7 -7219.4,12045.4 -3.7,15 8.4,25 20.1,25 7.5,0 14.8,-4 17.9,-13.3 594.9,-1761.3 2994.3,-8246.6 7216.4,-12012.2 21.8,-19.4 4.6,-50.2 -18.5,-50.2"
             style="fill:url(#linearGradient62);fill-opacity:1;fill-rule:nonzero;stroke:none"
             id="path64" /></g></g><path
         d="m 21289.6,8190.6 c 0,0 -7339,10870.7 -15660.46,15170.1 -559.4,289 -1217.5,-152.4 -1158.42,-779.3 C 4865.87,18389.7 7223.49,6113.2 21289.6,8190.6"
         style="fill:#91b3fa;fill-opacity:1;fill-rule:nonzero;stroke:none"
         id="path66" /><path
         d="m 19796.6,8444.3 c -3.4,0 -7,0.5 -10.8,1.6 -1544.6,441.2 -7871.2,3086.2 -12909.94,11217.1 -11.64,18.7 4.44,37.7 21.23,37.7 6.55,0 13.22,-2.9 18.38,-9.8 C 8269.81,17876.5 13498.3,11275 19809.4,8511 c 36.3,-15.9 21.7,-66.7 -12.8,-66.7"
         style="fill:#c8d9fd;fill-opacity:1;fill-rule:nonzero;stroke:none"
         id="path68" /><g
         id="g70"><g
           id="g72"
           clip-path="url(#clipPath76)"><path
             d="m 30315.7,12667.4 h -283.8 v 2631.1 l 536.4,182.2 -252.6,-2813.3"
             style="fill:url(#linearGradient82);fill-opacity:1;fill-rule:nonzero;stroke:none"
             id="path84" /></g></g><g
         id="g86"><g
           id="g88"
           clip-path="url(#clipPath92)"><path
             d="m 17477.1,10518.3 -8471.55,4240.2 741.36,-6495.3 c 197.87,-219.6 484.59,-517.5 856.99,-838.9 2790.9,-2408.2 6218.4,-2528.9 7139.2,-2548.4 862.8,-18.4 4521.5,-96 7366,2356.4 290.6,250.6 514.4,477.3 662.5,635 l 1891.6,6431.3 c 0,0 -10071.9,-3832.6 -10186.1,-3780.3"
             style="fill:url(#linearGradient98);fill-opacity:1;fill-rule:nonzero;stroke:none"
             id="path100" /></g></g><g
         id="g102"><g
           id="g104"
           clip-path="url(#clipPath108)"><path
             d="m 6101.23,16964.1 13089.67,3522 c 113.6,46.8 13088,-3403.9 13088,-3403.9 477.7,-194.8 470.1,-984.7 -11,-1167.1 L 18973.4,10690.5 c -830.6,-326.5 -1759.9,-290.2 -2562.6,100 L 6084.17,15810.2 c -455.32,208.6 -444.17,963.7 17.06,1153.9"
             style="fill:url(#linearGradient114);fill-opacity:1;fill-rule:nonzero;stroke:none"
             id="path116" /></g></g><g
         id="g118"><g
           id="g120"
           clip-path="url(#clipPath124)"><path
             d="m 30326.5,13296.6 c 0,0 -2818.8,-3913 -184.7,-6412.5 94.8,-89.9 235.8,-61.4 296.6,62.1 l 1000.3,2032 c 742.7,1508.6 -1112.2,4318.4 -1112.2,4318.4"
             style="fill:url(#linearGradient130);fill-opacity:1;fill-rule:nonzero;stroke:none"
             id="path132" /></g></g><path
         d="m 17862.2,11299.7 c -323.5,0 -646.6,69.4 -943.3,207.4 L 6044.59,16564.5 c -32.18,14.9 -46.14,53.1 -31.18,85.3 15.02,32.2 53.25,46.1 85.36,31.2 L 16973.1,11623.6 c 513.4,-238.7 1111.1,-259.7 1640,-57.6 l 13388.4,5116.7 c 33.2,12.7 70.3,-3.9 83,-37.1 12.7,-33.1 -4,-70.2 -37.1,-82.9 L 18658.9,11445.9 c -255.5,-97.6 -526.2,-146.2 -796.7,-146.2"
         style="fill:#91b3fa;fill-opacity:1;fill-rule:nonzero;stroke:none"
         id="path134" /><g
         id="g136"><g
           id="g138"
           clip-path="url(#clipPath142)"><path
             d="m 24845.3,30920.8 287.5,-485.7 c 39,-66 104.7,-111.8 180.1,-125.5 189.3,-34.3 578.3,-47.4 1067.1,248 496.4,300.1 605,635.7 626.3,804.5 7.8,61.2 -4.8,123.1 -35.8,176.4 l -300.7,518.2 -1824.5,-1135.9"
             style="fill:url(#linearGradient148);fill-opacity:1;fill-rule:nonzero;stroke:none"
             id="path150" /></g></g><g
         id="g152"><g
           id="g154"
           clip-path="url(#clipPath158)"><path
             d="M 25168.5,32267.1 24397.8,30831 c -39.7,-73.9 19.1,-162.2 102.6,-154 407.4,39.9 1344.1,120.1 1789.2,63.7 47.6,-6.1 93.1,21.1 110.6,65.8 l 626.7,1600.3 c 28.3,72.4 -29.1,149.4 -106.6,142.8 -408.5,-34.6 -1440,-130.5 -1699,-235 -22.7,-9.1 -41.3,-26 -52.8,-47.5"
             style="fill:url(#linearGradient164);fill-opacity:1;fill-rule:nonzero;stroke:none"
             id="path166" /></g></g><g
         id="g168"><g
           id="g170"
           clip-path="url(#clipPath174)"><path
             d="m 25729.4,31680.7 c 0,0 960.3,237.5 1091.4,199.9 131.1,-37.7 437.3,-510 437.3,-510 425.7,-226.6 802.4,-561.6 838.2,-904.6 0,0 -629.9,225 -730.3,491.5 -100.5,266.5 -143.7,373.6 -143.7,373.6 0,0 -347,482.2 -430.7,515.7 0,0 -1087.3,-240.4 -1062.2,-166.1"
             style="fill:url(#linearGradient180);fill-opacity:1;fill-rule:nonzero;stroke:none"
             id="path182" /></g></g><path
         d="m 24649.1,30882.4 1127.8,30 281.9,7.4 70.5,1.9 35.1,1 c 11,0.3 21.8,2.1 32.5,4.8 42.5,11.1 79.5,41.7 97.9,82 l 241.5,509.8 c 1.9,4 6.7,5.7 10.7,3.8 4,-1.9 5.7,-6.7 3.9,-10.7 l -237.7,-511.6 c -20.4,-45.6 -62.3,-81.1 -110.8,-94 -12.1,-3.2 -24.5,-5.3 -37.1,-5.8 l -35.3,-1.3 -70.5,-2.4 -281.9,-9.6 -1127.5,-38.5 c -9.2,-0.3 -16.9,6.9 -17.2,16 -0.3,9.2 6.9,16.9 16.1,17.2 h 0.1"
         style="fill:#bdd0fb;fill-opacity:1;fill-rule:nonzero;stroke:none"
         id="path184" /><path
         d="m 27418.9,31131.1 0.1,-2.3 0.3,-2.9 0.6,-5.8 2,-11.9 c 1.4,-8 3.7,-16 5.5,-24 l 7.6,-23.8 c 2.8,-7.9 6.1,-15.6 9.1,-23.4 2.9,-7.9 6.7,-15.4 10.5,-22.9 3.8,-7.6 7.2,-15.2 11.3,-22.7 l 12.8,-21.8 c 4.4,-7.3 8.4,-14.8 13.5,-21.6 l 14.5,-20.9 c 5,-6.9 9.5,-14.2 15.1,-20.6 10.8,-13.2 21.5,-26.5 32.5,-39.6 l 35.2,-37.3 c 3,-3.1 5.8,-6.3 8.9,-9.2 l 9.5,-8.7 18.9,-17.4 c 24.6,-24.1 52.5,-44.4 79.1,-66.1 6.6,-5.6 13.7,-10.5 20.8,-15.3 l 21.2,-14.8 c 14.1,-9.8 28.1,-19.9 42.5,-29.5 29.5,-17.8 58.7,-36.3 88.5,-53.7 l 91.5,-48.9 0.3,-0.1 c 2.8,-1.5 3.8,-5 2.3,-7.8 -1.4,-2.8 -4.9,-3.9 -7.6,-2.5 l -93.3,46.8 c -30.6,16.7 -60.5,34.6 -90.8,51.9 -14.8,9.2 -29.2,19.1 -43.8,28.6 l -21.8,14.5 c -7.4,4.7 -14.7,9.5 -21.5,15 -27.6,21.4 -56.5,41.3 -82.3,65.1 l -19.8,17.3 -9.9,8.6 c -3.2,3 -6.2,6.2 -9.4,9.3 l -37.2,37.4 c -11.7,13.1 -23,26.7 -34.5,40 -6,6.5 -10.9,13.9 -16.2,20.9 l -15.7,21.4 c -5.5,7 -9.9,14.7 -14.7,22.2 l -14.1,22.6 c -4.4,7.7 -8.3,15.7 -12.5,23.6 -4.2,7.9 -8.4,15.7 -11.8,24.1 -3.4,8.2 -7.2,16.4 -10.4,24.8 l -8.9,25.6 c -2.3,8.8 -5,17.4 -6.8,26.5 l -2.7,13.6 -0.9,7.1 -0.5,3.6 -0.3,4.2 c -0.6,9.1 6.3,17.1 15.4,17.7 9.2,0.7 17.1,-6.2 17.8,-15.3 v -0.3 l 0.1,-1.3"
         style="fill:#bdd0fb;fill-opacity:1;fill-rule:nonzero;stroke:none"
         id="path186" /><path
         d="m 27592.2,30999.9 23.5,-22.7 26.8,-25.3 53.8,-50.4 108.2,-100.5 216.9,-200.3 c 3.7,-3.4 4,-9.1 0.6,-12.8 -3.3,-3.6 -8.9,-3.8 -12.6,-0.6 l -222.1,194.7 -110.8,97.7 -55.2,49.1 -27.6,24.8 -13.7,12.6 -6.9,6.4 c -2.9,2.8 -6.2,6.3 -9,9.6 -5.8,6.7 -5.1,16.9 1.7,22.8 6.3,5.5 15.8,5.1 21.7,-0.6 l 4.7,-4.5"
         style="fill:#bdd0fb;fill-opacity:1;fill-rule:nonzero;stroke:none"
         id="path188" /><path
         d="m 30433.7,19488.4 c -190.6,178.8 -308.2,252.1 -377.8,281.1 18.1,18.5 36.9,37.2 56.8,56 21.2,20.1 53,21.5 71.8,2.6 L 31196,18811.2 c 32.2,-32.5 13.8,-89 -29.8,-104.8 -122.5,143.5 -438,505.5 -732.5,782"
         style="fill:#7d97f4;fill-opacity:1;fill-rule:nonzero;stroke:none"
         id="path190" /><g
         id="g192"><g
           id="g194"
           clip-path="url(#clipPath198)"><path
             d="m 31166.2,18706.4 c -3.8,-1.4 -7.5,-3 -11.6,-3.7 -214.6,-36.4 -691.9,-59.3 -1252,281.3 l -223.8,208.6 c 0,0 70,263.9 377.1,576.9 69.6,-29 187.2,-102.3 377.8,-281.1 294.5,-276.5 610,-638.5 732.5,-782"
             style="fill:url(#linearGradient204);fill-opacity:1;fill-rule:nonzero;stroke:none"
             id="path206" /></g></g><path
         d="m 25075.4,14525.3 c 258.6,2.3 392.9,30.2 462.6,57.2 -0.3,-25.7 -1,-51.9 -2.3,-79 -1.5,-28.9 -23.3,-51.6 -49.7,-50.9 l -1419.3,35.9 c -45.2,1.2 -70.7,54.2 -50.3,95.4 185.8,-18.9 659.2,-62.3 1059,-58.6"
         style="fill:#7d97f4;fill-opacity:1;fill-rule:nonzero;stroke:none"
         id="path208" /><g
         id="g210"><g
           id="g212"
           clip-path="url(#clipPath216)"><path
             d="m 24016.4,14583.9 c 1.8,3.6 3.3,7.2 5.8,10.6 128.7,172.8 454.5,515.5 1088.3,654.9 l 302.8,3.8 c 0,0 130.3,-236.8 124.7,-670.7 -69.7,-27 -204,-54.9 -462.6,-57.2 -399.8,-3.7 -873.2,39.7 -1059,58.6"
             style="fill:url(#linearGradient222);fill-opacity:1;fill-rule:nonzero;stroke:none"
             id="path224" /></g></g><path
         d="m 26345.6,18514.5 c -116.3,749 -813.6,916.9 -942.7,490.8 0,0 -337.9,-2651.6 -461.5,-3799.2 177.9,-74.3 266.1,-58.9 451.6,-98.2 283.1,776.4 1035.2,2874.3 952.6,3406.6"
         style="fill:#7d97f4;fill-opacity:1;fill-rule:nonzero;stroke:none"
         id="path226" /><path
         d="m 28489.7,18612.2 c -590.9,1 -409.4,510.9 -595.5,820 -215.3,8.9 -970.7,-136.4 -970.7,-136.4 0,0 416,-1954.5 1268.6,-1674.6 689.3,226.3 1577.8,974.6 1863.8,1277.3 -88.1,97.7 -251.1,259.7 -335.9,359.9 -200.6,-202.6 -751,-646.9 -1230.3,-646.2"
         style="fill:#7d97f4;fill-opacity:1;fill-rule:nonzero;stroke:none"
         id="path228" /><g
         id="g230"><g
           id="g232"
           clip-path="url(#clipPath236)"><path
             d="m 26447.3,25694 27.5,-920.7 c 1.8,-59 -35.1,-112.2 -91.1,-130.7 -114.6,-38 -322.1,-85 -554.2,-34.9 -69.3,15 -113.5,83.3 -101.3,153.1 l 126.1,725.3 593,207.9"
             style="fill:url(#linearGradient242);fill-opacity:1;fill-rule:nonzero;stroke:none"
             id="path244" /></g></g><g
         id="g246"><g
           id="g248"
           clip-path="url(#clipPath252)"><path
             d="m 25816.3,26537 c -8.4,-10.4 -286.7,-767.8 -409.1,-1101.5 -31,-84.5 15,-177.5 100.9,-204.4 l 269.2,-49.1 c 178.5,-32.6 355.8,62.5 427.3,229.2 l 324.2,377.7 c 176.2,205.3 115.6,522.9 -125.4,645.8 -237.4,121 -497.7,214.5 -587.1,102.3"
             style="fill:url(#linearGradient258);fill-opacity:1;fill-rule:nonzero;stroke:none"
             id="path260" /></g></g><g
         id="g262"><g
           id="g264"
           clip-path="url(#clipPath268)"><path
             d="m 26352,25704.2 -77,38.6 c 0,0 308.2,500.8 -38.5,539.3 -346.8,38.6 -655,115.6 -655,308.3 0,192.6 0,539.4 423.8,385.2 423.8,-154.1 385.3,-423.8 616.4,-462.3 231.2,-38.5 423.8,-77.1 346.8,-308.2 -77.1,-231.2 -231.2,-385.3 -154.1,-462.3 77,-77.1 -269.7,-462.4 -462.4,-38.6"
             style="fill:url(#linearGradient274);fill-opacity:1;fill-rule:nonzero;stroke:none"
             id="path276" /></g></g><g
         id="g278"><g
           id="g280"
           clip-path="url(#clipPath284)"><path
             d="m 26269.8,25554.2 c 0,0 64,338.7 207,347.1 143,8.4 274.3,-116.4 121.9,-299.7 -189.5,-228 -328.9,-47.4 -328.9,-47.4"
             style="fill:url(#linearGradient290);fill-opacity:1;fill-rule:nonzero;stroke:none"
             id="path292" /></g></g><g
         id="g294"><g
           id="g296"
           clip-path="url(#clipPath300)"><path
             d="m 27937.3,28703.7 c -65.1,65.1 -325.4,32.5 -227.8,-162.8 l -91.3,-137 c -25.2,-37.7 -31.7,-84.6 -17.5,-127.6 28.4,-86.2 84.4,-236 162.2,-354.5 -14.1,-449.6 -70.4,-1448.7 -296.1,-2229.1 -350.6,-1187.3 -992,-922.2 -992,-922.2 0,0 -193.8,123.6 -616.7,52.8 -879.4,-325.9 -1313.2,600.8 -1321.3,618.4 -330.8,800.7 -404.4,2067.2 -420.7,2590.1 77.8,118.5 133.8,268.3 162.2,354.4 14.2,43.1 7.7,90 -17.5,127.7 l -91.3,137 c 97.6,195.3 -162.7,227.8 -227.8,162.8 -65.1,-65.1 -292.9,-390.6 -260.4,-520.8 19.2,-76.7 83.6,-243.8 166.6,-334.8 -289.3,-945 -158.8,-1885.9 83.5,-2650.5 h -0.1 c 91.1,-774.7 683.8,-1252.9 1006.6,-1446.6 38.8,-813.6 499.7,-2936.2 499.7,-2936.2 l 1906.8,77.9 -23.5,2848.3 c 0,0 439.4,819.1 471.6,899.4 l 5.6,0.3 v 0 c 308.1,825.5 587.1,1958.5 238.5,3097.4 83,91 144.6,258.1 163.8,334.8 32.6,130.2 -198,455.7 -263.1,520.8"
             style="fill:url(#linearGradient306);fill-opacity:1;fill-rule:nonzero;stroke:none"
             id="path308" /></g></g><g
         id="g310"><g
           id="g312"
           clip-path="url(#clipPath316)"><path
             d="m 24938,16500.1 c 1689.7,-69 3083,452.2 3855.1,2159.4 L 27320.9,23851 c -40.3,556.1 -147.1,1027.9 -730.4,895.8 -143,-284.6 -250.6,-555.7 -538.8,-817 -225.4,304.5 -403.1,589.3 -470.2,828.4 l -394.7,82.9 -565.4,-7987 c -13.2,-186.1 130.2,-346.4 316.6,-354"
             style="fill:url(#linearGradient322);fill-opacity:1;fill-rule:nonzero;stroke:none"
             id="path324" /></g></g><g
         id="g326"><g
           id="g328"
           clip-path="url(#clipPath332)"><path
             d="m 26789.3,24766.8 565.1,-1034 c 668.5,1045.7 894.7,2203.5 844.2,3468.4 -140.9,-100.2 -333.6,-34.8 -538.2,68.7 -72.2,-1009.7 -263.7,-1856.9 -871.1,-2503.1"
             style="fill:url(#linearGradient338);fill-opacity:1;fill-rule:nonzero;stroke:none"
             id="path340" /></g></g><g
         id="g342"><g
           id="g344"
           clip-path="url(#clipPath348)"><path
             d="m 25186.8,24841.1 c -662.1,401 -857.9,1351.8 -1018.4,2360.3 -196.9,-93 -359.7,-117.9 -490.2,-78.7 -40.1,-1470.5 460.6,-2856.7 1372.4,-4178.7 l 136.2,1897.1"
             style="fill:url(#linearGradient354);fill-opacity:1;fill-rule:nonzero;stroke:none"
             id="path356" /></g></g><g
         id="g358"><g
           id="g360"
           clip-path="url(#clipPath364)"><path
             d="m 26005.3,23497.4 c -266.6,441.7 -498.2,880.4 -682.7,1315.2 l 168.7,-35.5 c 157.8,-338 334.7,-671 531.2,-998.5 269.3,304.4 480.8,642.3 634.6,981 l 132.2,7.2 c -138.5,-373.8 -444,-808.6 -784,-1269.4"
             style="fill:url(#linearGradient370);fill-opacity:1;fill-rule:nonzero;stroke:none"
             id="path372" /></g></g><g
         id="g374"><g
           id="g376"
           clip-path="url(#clipPath380)"><path
             d="m 14242,29983.5 -352.9,-430.8 c -47.9,-58.4 -118.8,-93.3 -194.3,-95.4 -189.7,-5.2 -571,40.1 -1003.6,401.2 -439.3,366.7 -495.1,710.1 -490.6,878 1.6,60.8 23.1,119.3 61.2,166.6 l 370.6,460.5 1609.6,-1380.1"
             style="fill:url(#linearGradient386);fill-opacity:1;fill-rule:nonzero;stroke:none"
             id="path388" /></g></g><g
         id="g390"><g
           id="g392"
           clip-path="url(#clipPath396)"><path
             d="m 14127.8,31344.5 537.2,-1515.4 c 27.6,-78 -42.9,-155.3 -123.1,-134.9 -391.3,99.7 -1292.8,317.8 -1735.2,329.3 -47.3,1.2 -87.7,34.5 -98.1,80.7 l -372.1,1654 c -16.8,74.9 50.7,141.4 125.2,123.4 393.2,-94.7 1384.7,-342.2 1621.8,-482.8 20.7,-12.3 36.3,-31.5 44.3,-54.3"
             style="fill:url(#linearGradient402);fill-opacity:1;fill-rule:nonzero;stroke:none"
             id="path404" /></g></g><g
         id="g406"><g
           id="g408"
           clip-path="url(#clipPath412)"><path
             d="m 13493.3,30856.5 c 0,0 -901,374.9 -1034.4,357.8 -133.5,-17 -502.6,-432 -502.6,-432 -448.9,-157.3 -866.3,-427.8 -952.4,-757 0,0 647.8,125.4 785.6,370.3 137.7,244.9 195.9,342.9 195.9,342.9 0,0 410.3,418.4 496.9,438.6 0,0 1024.4,-396.8 1011,-320.6"
             style="fill:url(#linearGradient418);fill-opacity:1;fill-rule:nonzero;stroke:none"
             id="path420" /></g></g><path
         d="m 14427.6,29916.8 -1095.3,197.5 -273.8,49.4 -68.5,12.4 -34.1,6.2 c -10.6,1.9 -20.9,5.3 -30.9,9.6 -39.8,17.1 -71.3,52.4 -83.2,94.5 l -159.4,533.2 c -1.3,4.2 -5.7,6.6 -9.9,5.3 -4.2,-1.3 -6.6,-5.7 -5.4,-9.9 l 155.4,-534.3 c 13.1,-47.5 48.6,-88.4 94,-108.3 11.4,-4.9 23.2,-8.8 35.3,-11.1 l 34.3,-6.6 68.4,-12.8 273.4,-51.5 1093.7,-205.9 c 8.9,-1.7 17.5,4.2 19.2,13.1 1.7,8.9 -4.2,17.5 -13.1,19.1 l -0.1,0.1"
         style="fill:#bdd0fb;fill-opacity:1;fill-rule:nonzero;stroke:none"
         id="path422" /><path
         d="m 11763.8,30572.8 -0.5,-2.2 -0.7,-2.8 -1.4,-5.5 -3.8,-11.4 c -2.6,-7.6 -6,-15 -9,-22.6 l -10.9,-22.1 c -3.9,-7.2 -8.3,-14.2 -12.4,-21.4 -4,-7.2 -8.9,-14 -13.6,-20.8 -4.8,-6.8 -9.4,-13.7 -14.4,-20.4 l -15.8,-19.4 c -5.4,-6.4 -10.3,-13.1 -16.3,-19 l -17.4,-18.2 c -5.8,-6.1 -11.3,-12.4 -17.8,-17.8 -12.5,-11.3 -24.8,-22.7 -37.5,-33.8 l -39.9,-31.1 c -3.4,-2.6 -6.6,-5.3 -10.1,-7.7 l -10.5,-7.1 -21.1,-14.1 c -27.5,-19.8 -57.8,-35.4 -87,-52.6 -7.2,-4.5 -14.9,-8.2 -22.5,-11.9 l -22.9,-11.2 c -15.3,-7.5 -30.4,-15.2 -45.8,-22.4 -31.5,-13 -62.7,-26.7 -94.4,-39.1 l -96.5,-34.1 -0.3,-0.1 c -3,-1 -4.5,-4.3 -3.5,-7.2 1.1,-3 4.2,-4.5 7.2,-3.6 l 97.9,31.7 c 32.3,11.8 64.2,24.7 96.3,37 15.7,6.9 31.3,14.3 46.9,21.5 l 23.5,10.8 c 7.8,3.5 15.7,7.1 23.2,11.4 30.1,16.7 61.2,31.8 89.9,51.3 l 21.9,13.8 11,7 c 3.6,2.4 7,5.1 10.5,7.6 l 41.8,30.9 c 13.4,11.1 26.5,22.6 39.7,33.9 6.8,5.4 12.7,11.8 19,18 l 18.5,18.5 c 6.4,5.9 11.8,12.8 17.6,19.4 l 17.1,19.9 c 5.5,6.9 10.5,14.1 15.8,21.2 5.2,7.1 10.5,14.1 15,21.7 4.6,7.6 9.5,14.9 13.9,22.6 l 12.5,23.7 c 3.5,8.2 7.4,16.3 10.6,24.8 l 4.6,12.9 2,6.8 0.9,3.4 1,4.1 c 2,8.8 -3.6,17.6 -12.4,19.6 -8.8,2 -17.6,-3.6 -19.6,-12.4 l -0.1,-0.3 -0.2,-1.2"
         style="fill:#bdd0fb;fill-opacity:1;fill-rule:nonzero;stroke:none"
         id="path424" /><path
         d="m 11575.1,30470.7 -26.3,-18.5 -29.8,-20.7 -60,-41.2 -120.5,-81.8 -241.5,-162.9 c -4.1,-2.8 -5.2,-8.3 -2.4,-12.4 2.7,-4 8.1,-5.1 12.1,-2.6 l 245.7,156.8 122.6,78.7 61.2,39.7 30.6,20 15.3,10.3 7.6,5.2 c 3.3,2.3 7,5.2 10.2,8 6.7,5.7 7.5,15.8 1.8,22.5 -5.4,6.3 -14.6,7.3 -21.3,2.7 l -5.3,-3.8"
         style="fill:#bdd0fb;fill-opacity:1;fill-rule:nonzero;stroke:none"
         id="path426" /><g
         id="g428"><g
           id="g430"
           clip-path="url(#clipPath434)"><path
             d="m 11834.9,14109.3 c -0.1,6.7 0.4,13.6 2.1,20.4 101.8,403.6 518.1,610.5 518.1,610.5 l 200.2,-15.7 c 115.1,-355.7 189.4,-529.4 170.9,-626.6 -0.5,-2.7 -1.4,-5.3 -2.1,-7.9 -165.2,-14.8 -505.1,-24.4 -889.2,19.3"
             style="fill:url(#linearGradient440);fill-opacity:1;fill-rule:nonzero;stroke:none"
             id="path442" /></g></g><path
         d="m 12724.1,14090 c -8.9,-32.5 -32.9,-57.7 -63.5,-64.2 -235,-49.4 -608.4,-9.6 -765.2,10.9 -34.6,4.5 -59.9,36.5 -60.5,72.6 384.1,-43.7 724,-34.1 889.2,-19.3"
         style="fill:#7d97f4;fill-opacity:1;fill-rule:nonzero;stroke:none"
         id="path444" /><g
         id="g446"><g
           id="g448"
           clip-path="url(#clipPath452)"><path
             d="m 12190.2,15051.8 87.7,-422 c 6.4,-30.9 30.2,-54.1 58.9,-56.8 35.3,-3.3 85.4,-5.2 135.9,2.2 45.2,6.6 76.7,52.6 68.7,101.9 l -61,374.7 h -290.2"
             style="fill:url(#linearGradient458);fill-opacity:1;fill-rule:nonzero;stroke:none"
             id="path460" /></g></g><path
         d="m 14425.4,14093.5 c -213.8,6 -324.4,31.2 -381.6,54.5 -0.1,-21.2 0,-42.9 0.7,-65.3 0.7,-23.9 18.4,-43.1 40.3,-42.9 l 1174.1,7.6 c 37.5,0.2 59.4,43.7 43.1,78 -153.9,-12.7 -546,-41.2 -876.6,-31.9"
         style="fill:#7d97f4;fill-opacity:1;fill-rule:nonzero;stroke:none"
         id="path462" /><g
         id="g464"><g
           id="g466"
           clip-path="url(#clipPath470)"><path
             d="m 15302,14125.4 c -1.4,3 -2.6,6.1 -4.6,8.9 -103.7,144.9 -367.8,433.4 -889.7,558.5 l -250.3,7.9 c 0,0 -111.5,-193.7 -113.6,-552.7 57.2,-23.3 167.8,-48.5 381.6,-54.5 330.6,-9.3 722.7,19.2 876.6,31.9"
             style="fill:url(#linearGradient476);fill-opacity:1;fill-rule:nonzero;stroke:none"
             id="path478" /></g></g><g
         id="g480"><g
           id="g482"
           clip-path="url(#clipPath486)"><path
             d="m 14110.9,15080.1 c 2.8,-18.6 37.1,-302.2 50.4,-412.2 3.2,-26.2 22.1,-46.4 46,-49.2 42.6,-5.1 111.6,-9.8 171.9,2.6 32.6,6.7 56.2,38 56.2,74.3 v 445.3 l -324.5,-60.8"
             style="fill:url(#linearGradient492);fill-opacity:1;fill-rule:nonzero;stroke:none"
             id="path494" /></g></g><path
         d="m 12357.5,20593.7 c 0,0 -400.6,-3561 -178.1,-5786.7 0,0 267.1,0 400.7,44.5 0,0 416.3,3481.8 550.9,4478.1 5.1,37.6 58.7,39.3 66.1,2.1 166.2,-838.2 818.8,-4125.2 896.4,-4435.7 0,0 222.6,-89 400.6,0 0,0 -356.1,4762.9 -623.2,5608.7 l -1513.4,89"
         style="fill:#7d97f4;fill-opacity:1;fill-rule:nonzero;stroke:none"
         id="path496" /><g
         id="g498"><g
           id="g500"
           clip-path="url(#clipPath504)"><path
             d="m 11556.3,24733.5 c 0,0 1691.5,267 3026.9,-89.1 l -89.1,-1379.9 c 0,0 -356.1,-1914.1 -623.2,-2759.8 0,0 -1023.8,-178.1 -1513.4,89 0,0 -400.6,2403.7 -623.2,2759.8 0,0 -222.6,934.8 -178,1380"
             style="fill:url(#linearGradient510);fill-opacity:1;fill-rule:nonzero;stroke:none"
             id="path512" /></g></g><g
         id="g514"><g
           id="g516"
           clip-path="url(#clipPath520)"><path
             d="m 12731.3,25949.8 -168.5,-1139.6 c 0,0 470.8,-216.2 800.4,9.3 l -70.9,804.2 -561,326.1"
             style="fill:url(#linearGradient526);fill-opacity:1;fill-rule:nonzero;stroke:none"
             id="path528" /></g></g><g
         id="g530"><g
           id="g532"
           clip-path="url(#clipPath536)"><path
             d="m 13456.8,26691.8 c 5.4,-9.6 106.9,-584.3 169.4,-940 25.9,-146.9 -82.2,-283.4 -231.1,-292.3 l -136.4,-8 c -250.6,-14.9 -471.4,163.6 -509.3,411.7 l -98.7,644.4 c 0,0 677.3,417.9 806.1,184.2"
             style="fill:url(#linearGradient542);fill-opacity:1;fill-rule:nonzero;stroke:none"
             id="path544" /></g></g><g
         id="g546"><g
           id="g548"
           clip-path="url(#clipPath552)"><path
             d="m 12503.7,26506 c -52.3,65 -97.9,170.2 13.4,280.7 112.8,112 240.7,84.1 321.9,46.5 35.9,-16.6 80.1,-9.2 105.7,21 11.3,13.4 28.2,22.6 53.2,19.8 47.2,-5.3 89.3,25.8 94.9,72.9 9.6,80.8 52.6,176 195.5,203.6 262.1,50.6 392.8,-211.6 388.1,-395.9 -4.7,-184.4 -291.9,-223.1 -454.8,-192.5 -119.7,22.5 -223.2,-82.7 -269.8,-140.2 -16.8,-20.8 -23.1,-48.1 -17.1,-74.2 l 41.5,-178.1 c -28.7,-55.4 -56.9,-111.9 -97.2,-159.1 -29,-34 -60.8,-52.8 -94.6,-60.7 -48.8,90.9 -185.5,106.3 -249,108.4 -24.3,0.7 -47,11.5 -62.9,29.8 -47.9,54.9 -122.9,177.5 20.6,297.9 35.7,29.9 39.8,83.8 10.6,120.1"
             style="fill:url(#linearGradient558);fill-opacity:1;fill-rule:nonzero;stroke:none"
             id="path560" /></g></g><g
         id="g562"><g
           id="g564"
           clip-path="url(#clipPath568)"><path
             d="m 12831.7,25759.1 c 0,0 -5.7,321.6 -135.8,351.8 -130.1,30.2 -270.5,-63.9 -159.2,-256.4 138.4,-239.5 295,-95.4 295,-95.4"
             style="fill:url(#linearGradient574);fill-opacity:1;fill-rule:nonzero;stroke:none"
             id="path576" /></g></g><g
         id="g578"><g
           id="g580"
           clip-path="url(#clipPath584)"><path
             d="m 12317.6,23196.4 c 0,0 -3822.03,1040.4 -1924.2,3715.9 l 128.4,-181.8 c 0,0 -533.8,-1911.8 1360.3,-2084 0,0 452.6,-1165.6 435.5,-1450.1"
             style="fill:url(#linearGradient590);fill-opacity:1;fill-rule:nonzero;stroke:none"
             id="path592" /></g></g><g
         id="g594"><g
           id="g596"
           clip-path="url(#clipPath600)"><path
             d="m 10380.5,26898.6 c 0,0 -43.1,516.6 215.2,559.6 258.3,43.1 344.4,-215.3 387.4,-344.4 43.1,-129.1 -387.4,-387.4 -473.5,-387.4 -86.1,0 -129.1,172.2 -129.1,172.2"
             style="fill:url(#linearGradient606);fill-opacity:1;fill-rule:nonzero;stroke:none"
             id="path608" /></g></g><g
         id="g610"><g
           id="g612"
           clip-path="url(#clipPath616)"><path
             d="m 13696.5,23067.3 c 0,0 3822,1040.4 1924.2,3715.9 l -128.4,-181.8 c 0,0 580.4,-1856.2 -1313.7,-2028.4 0,0 -499.2,-1221.2 -482.1,-1505.7"
             style="fill:url(#linearGradient622);fill-opacity:1;fill-rule:nonzero;stroke:none"
             id="path624" /></g></g><g
         id="g626"><g
           id="g628"
           clip-path="url(#clipPath632)"><path
             d="m 15633.6,26769.4 c 0,0 43.1,516.6 -215.2,559.7 -258.3,43 -344.4,-215.3 -387.5,-344.4 -43,-129.2 387.5,-387.5 473.6,-387.5 86.1,0 129.1,172.2 129.1,172.2"
             style="fill:url(#linearGradient638);fill-opacity:1;fill-rule:nonzero;stroke:none"
             id="path640" /></g></g><g
         id="g642"><g
           id="g644"
           clip-path="url(#clipPath648)"><path
             d="m 11722.2,24760 112.7,-7967.4 c 953.7,-324.9 1955.6,-315.6 3001.6,0 L 14494,24667 c -209.2,65.3 -659.7,122.4 -1004.7,145.5 l -348.9,-803.5 -676.3,813.7 c -112.6,9 -524.3,-22.2 -741.9,-62.7"
             style="fill:url(#linearGradient654);fill-opacity:1;fill-rule:nonzero;stroke:none"
             id="path656" /></g></g><g
         id="g658"><g
           id="g660"
           clip-path="url(#clipPath664)"><path
             d="m 13174.2,23599.3 -963.6,1216.4 148.8,13.9 794.9,-1003.5 c 180.8,384.9 356.5,749.3 496.8,974.6 l 149.9,-15.6 c -180.5,-276.9 -400.9,-719.7 -626.8,-1185.8"
             style="fill:url(#linearGradient670);fill-opacity:1;fill-rule:nonzero;stroke:none"
             id="path672" /></g></g><g
         id="g674"><g
           id="g676"
           clip-path="url(#clipPath680)"><path
             d="m 9864.73,25916.3 c 209.67,-49 420.07,-34.9 631.47,62.6 30.8,-726.8 595.2,-1123.9 1226,-1218.9 l 23.3,-1646.7 c -1300.5,683.7 -2026.27,1579.8 -1880.77,2803"
             style="fill:url(#linearGradient686);fill-opacity:1;fill-rule:nonzero;stroke:none"
             id="path688" /></g></g><g
         id="g690"><g
           id="g692"
           clip-path="url(#clipPath696)"><path
             d="m 15541,26078.5 c 190.7,-51 363.2,5.1 525,125 386.9,-1399.3 -285.7,-2268.9 -1512.3,-2909.4 -60.3,433.1 -79.6,891.2 -59.7,1372.9 556.4,99.3 919.5,635.7 1047,1411.5"
             style="fill:url(#linearGradient702);fill-opacity:1;fill-rule:nonzero;stroke:none"
             id="path704" /></g></g><g
         id="g706"><g
           id="g708"
           clip-path="url(#clipPath712)"><path
             d="m 21334.4,29431.1 129.7,-550.3 c 17.6,-74.7 2,-153.4 -42.9,-215.6 -112.8,-156.3 -384.7,-435.8 -942.7,-561.8 -566.8,-128.1 -878.2,38.8 -1010.9,145.9 -48,38.8 -81.9,92.3 -96.6,152.2 l -142.7,583.1 2106.1,446.5"
             style="fill:url(#linearGradient718);fill-opacity:1;fill-rule:nonzero;stroke:none"
             id="path720" /></g></g><g
         id="g722"><g
           id="g724"
           clip-path="url(#clipPath728)"><path
             d="m 20166.4,30178.8 1553.5,-501.8 c 80,-25.8 98.8,-130.4 32.9,-182.5 -321.9,-254.1 -1054,-846.5 -1336.1,-1196.2 -30.2,-37.5 -82,-49.4 -125.7,-29.3 l -1563.5,720.4 c -70.7,32.6 -82.8,128 -22.3,177.1 319,258.6 1130.4,905.6 1390,1010 22.7,9.1 47.9,9.8 71.2,2.3"
             style="fill:url(#linearGradient734);fill-opacity:1;fill-rule:nonzero;stroke:none"
             id="path736" /></g></g><g
         id="g738"><g
           id="g740"
           clip-path="url(#clipPath744)"><path
             d="m 20168.4,29366 c 0,0 -858.2,-495.3 -926.8,-613.5 -68.5,-118.2 38.4,-671.8 38.4,-671.8 -150.1,-459.2 -189.5,-962.7 22.9,-1235.2 0,0 298.5,599.8 186,862 -112.6,262.2 -155.7,369.5 -155.7,369.5 0,0 -84.3,589.1 -47.1,671.4 0,0 952.1,581.3 882.3,617.6"
             style="fill:url(#linearGradient750);fill-opacity:1;fill-rule:nonzero;stroke:none"
             id="path752" /></g></g><path
         d="m 21502.8,29539.6 -835.1,-761.4 -208.8,-190.3 -52.2,-47.6 -26.1,-23.7 c -8.1,-7.4 -17.2,-13.6 -26.7,-19 -38.4,-21.6 -86.4,-25.2 -127.6,-8.8 l -528.4,200.4 c -4.1,1.6 -8.8,-0.5 -10.4,-4.7 -1.6,-4.2 0.5,-8.8 4.6,-10.4 l 526.8,-204.4 c 46.4,-18.8 101.4,-15.3 145.4,9.1 10.9,6.1 21.4,13.1 30.8,21.5 l 26.4,23.6 52.5,47.2 210.2,188.8 840.9,755 c 6.9,6.2 7.4,16.7 1.3,23.5 -6.2,6.9 -16.7,7.4 -23.5,1.3 l -0.1,-0.1"
         style="fill:#bdd0fb;fill-opacity:1;fill-rule:nonzero;stroke:none"
         id="path754" /><path
         d="m 19330.2,27796.1 1.5,-1.7 1.8,-2.3 3.6,-4.6 6.8,-10.1 c 4.5,-6.7 8.4,-14.1 12.7,-21.1 l 11,-22.4 c 3.5,-7.7 6.4,-15.5 9.6,-23.3 3.4,-7.7 5.9,-15.8 8.4,-23.8 2.5,-8.1 5.3,-16 7.6,-24.2 l 5.9,-24.7 c 1.9,-8.3 4.2,-16.4 5.3,-24.9 l 4,-25.2 c 1.2,-8.4 2.9,-16.8 3.3,-25.4 1.4,-17 3,-34 4.1,-51.1 l 0.5,-51.4 c 0,-4.2 0.1,-8.5 0,-12.8 l -0.8,-12.9 -1.6,-25.7 c -1.1,-34.4 -7.1,-68.4 -11.3,-102.6 -0.9,-8.6 -2.6,-17.1 -4.3,-25.5 l -5,-25.4 c -3.5,-16.9 -6.6,-33.9 -10.3,-50.8 -8.9,-33.4 -17.1,-67 -26.7,-100.2 l -32,-98.8 -0.1,-0.3 c -1,-3.1 0.6,-6.3 3.7,-7.3 3,-1 6.2,0.6 7.2,3.5 l 34.9,98.6 c 10.4,33.3 19.6,67 29.6,100.5 4.1,16.9 7.7,34 11.6,51.1 l 5.8,25.6 c 2,8.5 3.9,17 5.1,25.7 5.1,34.6 12.1,69 14.1,104.2 l 2.4,26.2 1.1,13.1 c 0.3,4.4 0.2,8.8 0.3,13.2 l 0.9,52.8 c -0.6,17.6 -1.8,35.3 -2.8,52.9 -0.2,8.8 -1.7,17.6 -2.8,26.4 l -3.5,26.3 c -0.9,8.9 -3.1,17.5 -4.8,26.2 l -5.5,26.1 c -2.2,8.7 -4.9,17.2 -7.4,25.8 -2.4,8.6 -4.8,17.2 -8.2,25.5 -3.3,8.4 -6.2,16.9 -9.7,25.2 l -11.3,24.6 c -4.5,8 -8.6,16.1 -13.5,23.9 l -7.6,11.7 -4.2,5.7 -2.2,3 -2.7,3.2 c -5.9,7 -16.4,8 -23.4,2.1 -7.1,-5.9 -8,-16.4 -2.2,-23.4 l 0.2,-0.2 0.9,-1"
         style="fill:#bdd0fb;fill-opacity:1;fill-rule:nonzero;stroke:none"
         id="path756" /><path
         d="m 19296.1,27581 -1.3,-32.7 -1.7,-36.8 -3.9,-73.8 -8.3,-147.6 -17.6,-295.3 c -0.3,-5 3.5,-9.3 8.5,-9.6 4.9,-0.4 9.1,3.3 9.6,8.2 l 25.1,294.8 12.2,147.5 5.7,73.8 2.7,37 1.2,18.7 0.6,9.4 c 0.1,4 0,8.8 -0.2,13.1 -0.5,9 -8.1,15.8 -17.1,15.3 -8.4,-0.4 -14.9,-7.2 -15.3,-15.4 l -0.2,-6.6"
         style="fill:#bdd0fb;fill-opacity:1;fill-rule:nonzero;stroke:none"
         id="path758" /><g
         id="g760"><g
           id="g762"
           clip-path="url(#clipPath766)"><path
             d="m 18545.5,25277 c 17.3,-29.9 -114.5,-138.4 -294.2,-242.2 -179.8,-103.8 -339.6,-163.6 -356.9,-133.7 -17.3,30 114.4,138.5 294.2,242.3 179.8,103.8 339.5,163.6 356.9,133.6"
             style="fill:url(#linearGradient772);fill-opacity:1;fill-rule:nonzero;stroke:none"
             id="path774" /></g></g><g
         id="g776"><g
           id="g778"
           clip-path="url(#clipPath782)"><path
             d="m 22516.4,25812 c -13.2,-38.7 -168.3,-82 -378.8,-82 -210.4,0 -383.3,43.6 -383.3,84.5 0,40.9 172.9,63.7 383.3,63.7 210.5,0 392.9,-25.2 378.8,-66.2"
             style="fill:url(#linearGradient788);fill-opacity:1;fill-rule:nonzero;stroke:none"
             id="path790" /></g></g><g
         id="g792"><g
           id="g794"
           clip-path="url(#clipPath798)"><path
             d="m 18352.9,12985.8 -14.6,-336.3 c -2.7,-63.9 -48.6,-117.7 -111.3,-129.9 -105.9,-20.5 -276.3,-46.4 -445.4,-41.7 -74.2,2 -127.8,72.8 -110.9,145.1 30.8,131.8 90.6,330.8 189.6,452.8 l 369.6,28.8 c 68.3,5.4 125.9,-50.3 123,-118.8"
             style="fill:url(#linearGradient804);fill-opacity:1;fill-rule:nonzero;stroke:none"
             id="path806" /></g></g><g
         id="g808"><g
           id="g810"
           clip-path="url(#clipPath814)"><path
             d="m 20943.6,17114.8 91,-362.1 c 0,0 -43.9,-2132.5 -15.1,-2981.9 4.5,-133.1 49.1,-261.6 127.6,-369.3 l 409.2,-561.6 -965.7,472.8 -27.2,111.2 134.9,219.6 -382.8,2355.3 c -22.5,138.3 -4.6,280.3 51.4,408.7 l 163,373.7 413.7,333.6"
             style="fill:url(#linearGradient820);fill-opacity:1;fill-rule:nonzero;stroke:none"
             id="path822" /></g></g><g
         id="g824"><g
           id="g826"
           clip-path="url(#clipPath830)"><path
             d="m 21623.8,12759.2 -294.6,-23 c -55.2,-4.3 -109.2,17 -146.2,58 -101.2,112.2 -309.6,330.2 -401.1,329.2 -123.1,-1.3 -73.5,-435.6 -73.5,-435.6 l -68.7,-5.4 -129.1,534.4 c -32.5,134.4 24.7,274.6 141.9,347.9 0,0 44.2,-204.9 203.2,-284.6 158.9,-79.8 650.5,-371.5 650.5,-371.5 0,0 56.5,12.6 120,6.2 94.3,-9.6 92.1,-148.3 -2.4,-155.6"
             style="fill:url(#linearGradient836);fill-opacity:1;fill-rule:nonzero;stroke:none"
             id="path838" /></g></g><g
         id="g840"><g
           id="g842"
           clip-path="url(#clipPath846)"><path
             d="m 19692.6,16841.9 c 0,0 -1042.9,-2417.1 -1196.2,-2962.3 -153.2,-545.3 -186.9,-992.8 -186.2,-1034.9 1,-65.7 -75.5,-134.8 -299.8,-152.3 -115.8,-9.1 -176.1,32.9 -207.4,75.7 -26.6,36.5 -31.6,84.3 -14.8,126.3 59.6,148.8 248.6,624.2 315.6,838.3 80,255.8 206.1,1396.1 292.9,1796 86.7,399.8 186.1,833.9 666.1,1264.1 0,0 323.6,370.5 629.8,49.1"
             style="fill:url(#linearGradient852);fill-opacity:1;fill-rule:nonzero;stroke:none"
             id="path854" /></g></g><g
         id="g856"><g
           id="g858"
           clip-path="url(#clipPath862)"><path
             d="m 20039.9,25037.1 c 0,0 -1226.8,377.5 -1428.7,-902.2 -201.9,-1279.6 -341.4,-1689.8 -645.6,-1469.1 0,0 50.1,-478.1 634.1,-264.4 1516,554.6 593.4,2330.5 1440.2,2635.7"
             style="fill:url(#linearGradient868);fill-opacity:1;fill-rule:nonzero;stroke:none"
             id="path870" /></g></g><g
         id="g872"><g
           id="g874"
           clip-path="url(#clipPath878)"><path
             d="m 19786,22932.3 c -51.2,50.1 -813.9,720.3 -1129.2,1549.6 -315.3,829.4 -340.1,1411.4 -340.1,1411.4 0,0 166.6,168.7 83.9,257.8 -82.6,89.2 -75.1,159.5 -164.4,165.7 -89.3,6.1 -200.5,17 -161.5,-151.4 39,-168.5 -159.3,-233.8 -109.8,-331.7 49.2,-97.5 356.9,-2761.3 1556.8,-3487.3 146.5,-88.7 485.4,-322.8 491.2,-325.4 445.1,241.7 -144.6,830.9 -226.9,911.3"
             style="fill:url(#linearGradient884);fill-opacity:1;fill-rule:nonzero;stroke:none"
             id="path886" /></g></g><g
         id="g888"><g
           id="g890"
           clip-path="url(#clipPath894)"><path
             d="m 21157.9,23217.9 c 36.4,61.6 669.7,896.1 759,1778.8 89.2,882.8 -37.8,1451.3 -37.8,1451.3 0,0 -204.7,119.7 -148,227.2 56.7,107.5 31.1,173.5 115.7,202.7 84.7,29.1 189.3,68.5 195.3,-104.4 6.1,-172.8 214.6,-184.4 192.2,-291.8 -22.3,-106.8 250.8,-2851.7 -719.5,-3864.2 -118.5,-123.6 -264,-345.3 -268.9,-349.4 -492.6,117.9 -146.7,850.8 -88,949.8"
             style="fill:url(#linearGradient900);fill-opacity:1;fill-rule:nonzero;stroke:none"
             id="path902" /></g></g><g
         id="g904"><g
           id="g906"
           clip-path="url(#clipPath910)"><path
             d="m 20169.1,20706.4 c 8.4,1255.4 -460.9,2298.8 -460.9,2298.8 256.6,287.9 458.2,263.7 755.8,401.5 268.7,124.6 586.2,80.2 810.4,-113.5 246.6,-213.1 515,-514.9 479,-797.4 -38,-299 -479.3,-1810.7 -479.3,-1810.7 0,0 -494.9,-283.3 -1105,21.3"
             style="fill:url(#linearGradient916);fill-opacity:1;fill-rule:nonzero;stroke:none"
             id="path918" /></g></g><g
         id="g920"><g
           id="g922"
           clip-path="url(#clipPath926)"><path
             d="m 20509.4,24248.7 -168.8,-1073.4 c -16.6,-103.4 235.9,-161.2 337.1,-133.8 165.7,44.8 218,108.9 280.2,245.4 6.4,13.9 8.9,29.3 9.8,44.5 l 47.9,808.1 c 3.8,64.1 -35.3,123 -95.8,144.4 l -220.2,77.8 c -84.7,29.9 -175.9,-24.2 -190.2,-113"
             style="fill:url(#linearGradient932);fill-opacity:1;fill-rule:nonzero;stroke:none"
             id="path934" /></g></g><g
         id="g936"><g
           id="g938"
           clip-path="url(#clipPath942)"><path
             d="m 20694,25179.1 c 0,0 356.8,-97 652.3,-553.9 295.4,-456.9 154.4,-705.3 -56.8,-765.3 -211.2,-59.9 -533.8,-98.7 -917,170.5 -383.2,269.2 -140.2,1258.5 321.5,1148.7"
             style="fill:url(#linearGradient948);fill-opacity:1;fill-rule:nonzero;stroke:none"
             id="path950" /></g></g><g
         id="g952"><g
           id="g954"
           clip-path="url(#clipPath958)"><path
             d="m 20566.3,24321.7 c 0,0 -351.1,679.4 280.6,773.3 l 163,-84 c 0,0 178.8,427.1 -227.9,564.6 -406.6,137.5 -952.5,-107.5 -1045.4,-642.8 -92.9,-535.4 46.8,-854.1 349.8,-1063.4 303,-209.2 376.6,84.4 376.6,84.4 0,0 -178,209.9 -134.7,340.9 43.2,131 201.2,1.3 201.2,1.3 l 36.8,25.7"
             style="fill:url(#linearGradient964);fill-opacity:1;fill-rule:nonzero;stroke:none"
             id="path966" /></g></g><g
         id="g968"><g
           id="g970"
           clip-path="url(#clipPath974)"><path
             d="m 20563.1,24232.7 c 0,0 -178.4,350.3 -330.4,180.6 -152.1,-169.6 185.5,-320.7 315.8,-366.9 l 14.6,186.3"
             style="fill:url(#linearGradient980);fill-opacity:1;fill-rule:nonzero;stroke:none"
             id="path982" /></g></g><g
         id="g984"><g
           id="g986"
           clip-path="url(#clipPath990)"><path
             d="m 21762.7,25822.6 c 216.9,-80.1 468.2,-71.7 743.8,-0.9 5.7,1.5 11,-3.4 10,-9.1 -203.4,-1200 -428.9,-2354.4 -731.7,-3217 l -517.1,852.3 c 332.6,482.4 423.9,1402.2 488.5,2370.5 0.2,3.2 3.5,5.3 6.5,4.2"
             style="fill:url(#linearGradient996);fill-opacity:1;fill-rule:nonzero;stroke:none"
             id="path998" /></g></g><g
         id="g1000"><g
           id="g1002"
           clip-path="url(#clipPath1006)"><path
             d="m 19759,23114.3 c -604.3,482.8 -969.7,1276.5 -1213.5,2162.7 -199.9,-196.2 -419.5,-320.5 -654.2,-376.4 529.3,-1263.3 1107.9,-2322.8 1816.9,-2844 l 50.8,1057.7"
             style="fill:url(#linearGradient1012);fill-opacity:1;fill-rule:nonzero;stroke:none"
             id="path1014" /></g></g><g
         id="g1016"><g
           id="g1018"
           clip-path="url(#clipPath1022)"><path
             d="m 21930.2,15137 c -1637.9,-141.3 -2596.3,-240.8 -3794.3,895.6 -77.6,73.6 -108.2,184.1 -78.9,286.9 l 1651.2,5792.4 c 40.3,556.2 -329.4,1018.9 485.9,1226 143,-284.6 233,-517 502.6,-786.6 204.4,302.2 285.2,657.4 352.3,896.6 l 265.5,4.3 388.5,-599.9 c 65,-100.5 93,-220.3 78.7,-339.1 -155.9,-1297.9 115.6,-4304.1 362.4,-7121.9 11.3,-129.2 -84.6,-243.2 -213.9,-254.3"
             style="fill:url(#linearGradient1028);fill-opacity:1;fill-rule:nonzero;stroke:none"
             id="path1030" /></g></g><g
         id="g1032"><g
           id="g1034"
           clip-path="url(#clipPath1038)"><path
             d="m 20742.5,22165.1 c -332,360.5 -589.9,735.8 -729.1,1115.5 l 110.7,38 c 158.8,-359.2 340.2,-677 598.3,-947.5 187,326.3 316.5,668 426.2,1065.6 l 119.1,11.2 c -108.5,-459 -296.4,-895.9 -525.2,-1282.8"
             style="fill:url(#linearGradient1044);fill-opacity:1;fill-rule:nonzero;stroke:none"
             id="path1046" /></g></g><path
         d="m 10094.9,8438.3 c -408.16,882.4 -1050.16,1484.4 -1881.81,1859 -70.53,31.7 -140.05,-46.5 -100.67,-113.1 l 264.18,-446.6 c 31.22,-52.8 2.2,-120.7 -57.51,-134.6 l -504.88,-117.7 c -73.33,-17.1 -71.24,-122.1 2.7,-136.4 881.99,-170 1599.64,-547.2 2114.54,-1138.1 l 163.45,227.5"
         style="fill:#91b3fa;fill-opacity:1;fill-rule:nonzero;stroke:none"
         id="path1048" /><path
         d="m 10721.6,8525.2 c -462.5,518.3 -159.4,1657.8 57.9,2590.8 16.7,71.4 -78,113 -119.7,52.7 l -417.8,-605.2 c -35.6,-51.6 -113.2,-47 -142.5,8.4 l -275.88,521.9 c -40.68,77 -156.69,53.5 -164.26,-33.2 -85.89,-983.8 23.51,-1840.1 505.44,-2453.1 l 556.8,-82.3"
         style="fill:#91b3fa;fill-opacity:1;fill-rule:nonzero;stroke:none"
         id="path1050" /><g
         id="g1052"><g
           id="g1054"
           clip-path="url(#clipPath1058)"><path
             d="M 6284.88,8868 27223.8,7489 c 698.8,-128.8 988.9,-2608.1 -120.3,-2750 L 6383.84,4946.8 C 5341.24,6217 5385.62,8457.3 6284.88,8868"
             style="fill:url(#linearGradient1064);fill-opacity:1;fill-rule:nonzero;stroke:none"
             id="path1066" /></g></g><path
         d="M 9778.9,8643.9 C 9096.7,8399.9 8614.29,5933 9764.83,4905.5 l 1117.27,-3.9 c -1012.25,1068.3 -1061.6,2885.5 -28,3665.5 l -1075.2,76.8"
         style="fill:#bdd0fb;fill-opacity:1;fill-rule:nonzero;stroke:none"
         id="path1068" /></g></g></svg>
